<?xml version="1.0" encoding="utf-8"?>
<!-- Generator: Adobe Illustrator 23.0.5, SVG Export Plug-In . SVG Version: 6.00 Build 0)  -->
<svg version="1.1" id="圖層_2" xmlns="http://www.w3.org/2000/svg" xmlns:xlink="http://www.w3.org/1999/xlink" x="0px" y="0px"
	 viewBox="0 0 100 100" style="enable-background:new 0 0 100 100;" xml:space="preserve">
<style type="text/css">
	.st0{fill:#FFFFFF;}
</style>
<g>
	<path class="st0" d="M80.5,71.5c-5.6-2.8-10.3-3.4-13.8-3.8c-0.7-0.1-1.4-0.2-2-0.3l2.3-8.2c0.1-0.5-0.1-1-0.6-1.2
		c-0.2-0.1-2.8-1.2-6.5-0.4c3.2-2.3,5.6-5.6,6.7-9.4c2.8-0.3,5-3,5-6.3c0-3-1.9-5.5-4.4-6.2v-1.1c0,0,0,0,0,0v-5.6v-4.3
		c3.6-1.4,6-4.9,6-8.8c0-5.2-4.2-9.5-9.5-9.5c-1.7,0-3.3,0.4-4.7,1.3c-1-4.1-4.8-7.2-9.2-7.2s-8.1,3-9.2,7.2c-1.4-0.8-3-1.3-4.7-1.3
		c-5.2,0-9.5,4.2-9.5,9.5c0,4,2.5,7.5,6.2,8.9v4.3v5.6c0,0,0,0,0,0v1c-2.8,0.4-4.9,3-4.9,6.3c0,3.5,2.5,6.3,5.5,6.3
		c1.1,3.9,3.5,7.2,6.7,9.5c-3.8-1-6.6,0.2-6.8,0.3c-0.5,0.2-0.7,0.7-0.6,1.2l2.3,8.2c-0.6,0.1-1.3,0.2-2,0.3
		c-3.4,0.4-8.2,1-13.8,3.8C10,76.1,7.5,92.1,9.3,98.9c0.1,0.4,0.5,0.7,1,0.7h79.3c0.5,0,0.9-0.3,1-0.7
		C92.3,92.1,89.8,76.1,80.5,71.5z M62.6,59.4c0.9,0,1.6,0.1,2.2,0.3l-2.2,7.9l-8.9,4.1l-2.6,1.2c0.4-3,1.7-9,5.4-11.4
		C58.8,59.8,61,59.4,62.6,59.4z M65.2,33.7H34.8v-3.6h30.4V33.7z M69.6,42c0,2-1.1,3.6-2.6,4.1c0.1-0.8,0.2-1.6,0.2-2.5v-5.7
		C68.6,38.5,69.6,40.1,69.6,42z M28.6,16c0-4.1,3.3-7.5,7.5-7.5c1.7,0,3.5,0.6,4.8,1.7c0.3,0.2,0.7,0.3,1,0.2
		c0.3-0.1,0.6-0.5,0.6-0.9c0.3-3.9,3.5-7,7.4-7c3.9,0,7.2,3.1,7.4,7c0,0.4,0.3,0.7,0.6,0.9c0.3,0.1,0.7,0.1,1-0.2
		c1.3-1.1,3-1.7,4.8-1.7c4.1,0,7.5,3.4,7.5,7.5c0,3.3-2.2,6.2-5.3,7.1c-0.4,0.1-0.7,0.5-0.7,1v4H34.8v-4c0-0.5-0.3-0.8-0.7-1
		C30.8,22.3,28.6,19.4,28.6,16z M29.9,42c0-2.1,1.2-3.9,2.9-4.2v5.9c0,0.9,0.1,1.7,0.2,2.6C31.2,46,29.9,44.2,29.9,42z M35.4,47.9
		c-0.2-0.7-0.3-1.3-0.4-2c-0.1-0.7-0.2-1.5-0.2-2.3v-7.9h30.4v2v5.9c0,0.8-0.1,1.7-0.2,2.5c-0.1,0.7-0.3,1.3-0.5,1.9
		c-1.9,6.2-7.7,10.8-14.6,10.8C43.1,58.9,37.2,54.2,35.4,47.9z M50,60.9c1.6,0,3.1-0.2,4.6-0.6c-2.5,2-3.9,5.3-4.7,8.2
		c-0.8-2.9-2.2-6.3-4.8-8.3C46.7,60.6,48.3,60.9,50,60.9z M43.3,61.3c3.7,2.4,5,8.5,5.4,11.4l-11.5-5.2L35,59.7
		C36.5,59.3,39.7,59,43.3,61.3z M20.2,73.3c5.3-2.6,9.7-3.2,13.2-3.6c1-0.1,2-0.3,2.8-0.4l11.3,5.1l-5.9,2.7
		c-3.3,1.5-5.4,4.7-5.4,8.3v12.3H11C9.7,90.9,12.4,77.2,20.2,73.3z M88.8,97.7H38.2V85.4c0-2.8,1.6-5.3,4.2-6.5l7.9-3.6c0,0,0,0,0,0
		l13.3-6c0.9,0.2,1.8,0.3,2.8,0.4c3.5,0.4,7.8,1,13.2,3.6C87.4,77.2,90.1,90.9,88.8,97.7z"/>
	<path class="st0" d="M42.6,85c-1,0-1.7,0.4-1.7,0.9s0.8,0.9,1.7,0.9c1,0,1.7-0.4,1.7-0.9S43.6,85,42.6,85z"/>
	<path class="st0" d="M57.4,85c-1,0-1.7,0.4-1.7,0.9s0.8,0.9,1.7,0.9c1,0,1.7-0.4,1.7-0.9S58.3,85,57.4,85z"/>
	<path class="st0" d="M42.6,94.3c-1,0-1.7,0.4-1.7,0.9s0.8,0.9,1.7,0.9c1,0,1.7-0.4,1.7-0.9S43.6,94.3,42.6,94.3z"/>
	<path class="st0" d="M57.4,94.3c-1,0-1.7,0.4-1.7,0.9s0.8,0.9,1.7,0.9c1,0,1.7-0.4,1.7-0.9S58.3,94.3,57.4,94.3z"/>
</g>
</svg>
