<?xml version="1.0" encoding="utf-8"?>
<!-- Generator: Adobe Illustrator 23.0.5, SVG Export Plug-In . SVG Version: 6.00 Build 0)  -->
<svg version="1.1" id="圖層_3" xmlns="http://www.w3.org/2000/svg" xmlns:xlink="http://www.w3.org/1999/xlink" x="0px" y="0px"
	 viewBox="0 0 100 100" style="enable-background:new 0 0 100 100;" xml:space="preserve">
<style type="text/css">
	.st0{fill:#FFFFFF;}
</style>
<g>
	<path class="st0" d="M97.1,6.6C96.3,5,95,3.7,93.4,2.9C86.9-0.8,77-1,67.7,2.3c-6.9,2.4-32.3,25.2-36.2,29.2
		c-4,3.9-26.8,29.3-29.2,36.2c-3,8.6-3.1,18-0.1,24.5c0.6,1.2,1.3,2.3,2.3,3.3s2,1.7,3.3,2.3c6.5,3,15.9,3,24.5-0.1
		c6.9-2.4,32.3-25.2,36.2-29.2c4-3.9,26.8-29.3,29.2-36.2C101,23,100.8,13.1,97.1,6.6z M94.7,31.2c-2,5.7-23.1,29.9-28.5,35
		c-5.2,5.3-29.3,26.4-35,28.5c-7.9,2.8-16.3,2.8-22.1,0.2c-1.8-0.8-3.2-2.2-4-4c-2.7-5.8-2.6-14.2,0.2-22.1c2-5.7,23.1-29.9,28.5-35
		c5.2-5.3,29.3-26.4,35-28.5c8.3-2.9,17.4-2.8,23.1,0.3c0.5,0.3,1,0.7,1.4,1.1c0.4,0.4,0.8,0.9,1.1,1.4
		C97.5,13.8,97.7,22.9,94.7,31.2z"/>
	<path class="st0" d="M70.5,20.6c-8.2-4.1-16.9-2.8-19.7,3c-0.1,0.1-0.1,0.3-0.2,0.6l-0.9,2.3l2.5-0.1c4.5-0.3,9.4,0.8,14,3.1
		c4.6,2.3,8.5,5.6,11,9.3l1.5,2l1.3-2.1c0.1-0.1,0.2-0.3,0.2-0.4l0,0C82.9,32.3,78.7,24.6,70.5,20.6z M67.5,26.6
		c-4-2-8.3-3.2-12.4-3.4c3-2.4,8.7-2.4,14,0.2c2,1,3.7,2.2,5,3.6c2.3,2.3,3.7,5,3.6,7.4C75.1,31.3,71.6,28.6,67.5,26.6z"/>
	<path class="st0" d="M52.3,38.1C43,33.5,32.8,35,29.6,41.5c-0.1,0.2-0.1,0.3-0.2,0.5l-1,2.5l2.5-0.1c5.3-0.3,11.1,1,16.6,3.7
		c5.4,2.7,10,6.6,13,10.9l1.4,2.1l1.3-2.3c0.1-0.2,0.2-0.3,0.3-0.5c1.6-3.3,1.3-7.2-1-11.1C60.3,43.5,56.7,40.3,52.3,38.1z
		 M61.2,54.7c-3.2-3.8-7.5-7.2-12.4-9.6c-4.9-2.4-10.2-3.8-15.1-4c3.4-3.3,10.5-3.5,17.2-0.2c2.3,1.1,4.4,2.6,6,4.3
		c1.1,1.1,2,2.3,2.8,3.6C60.9,50.8,61.4,52.9,61.2,54.7z"/>
	<path class="st0" d="M33.2,57.9c-8.2-4.1-16.9-2.8-19.7,3c-0.1,0.1-0.1,0.3-0.2,0.6l-0.9,2.3l2.5-0.1c4.5-0.3,9.4,0.8,14,3.1
		c4.6,2.3,8.5,5.6,11,9.3l1.5,2l1.3-2.1c0.1-0.1,0.2-0.3,0.2-0.4l0,0C45.6,69.7,41.4,62,33.2,57.9z M30.2,63.9
		c-4-2-8.3-3.2-12.4-3.4c3-2.4,8.7-2.4,14,0.2c2,1,3.7,2.2,5,3.6c2.3,2.3,3.7,5,3.6,7.4C37.8,68.6,34.2,65.9,30.2,63.9z"/>
</g>
</svg>
