<?xml version="1.0" encoding="utf-8"?>
<!-- Generator: Adobe Illustrator 23.0.5, SVG Export Plug-In . SVG Version: 6.00 Build 0)  -->
<svg version="1.1" id="圖層_2" xmlns="http://www.w3.org/2000/svg" xmlns:xlink="http://www.w3.org/1999/xlink" x="0px" y="0px"
	 viewBox="0 0 100 100" style="enable-background:new 0 0 100 100;" xml:space="preserve">
<style type="text/css">
	.st0{fill:#FFFFFF;}
</style>
<g>
	<path class="st0" d="M80.5,71.5c-0.3-0.2-0.6-0.3-1-0.5v-1.2c0-0.5-0.3-0.9-0.8-1l-5.1-1.1c-0.3-0.1-0.6,0-0.8,0.2
		c-0.2,0.2-0.3,0.4-0.4,0.7c-2.2-0.5-4.1-0.8-5.7-1c-2.1-0.3-3.8-0.5-4.9-1.1c-1.8-1-2.8-5.2-3.1-8.1c3.8-2.2,6.7-5.9,7.9-10.2h0
		c2.8-0.3,5-3,5-6.3c0-2.3-1.1-4.4-2.8-5.5l1.6-2.8c0.1-0.2,0.2-0.4,0.1-0.6c0-0.3-0.1-0.6-0.3-0.9V19.9c0-5.9-4.8-10.6-10.6-10.6
		H40.4c-5.9,0-10.6,4.8-10.6,10.6v12.3c-0.2,0.3-0.3,0.6-0.3,0.9c0,0.2,0,0.4,0.1,0.6l1.5,2.6c-1.9,1-3.2,3.2-3.2,5.7
		c0,3.5,2.5,6.3,5.5,6.3c1.2,4.3,4,7.8,7.7,10.1c-0.3,2.9-1.2,7.2-3.1,8.2c-1.1,0.6-2.8,0.8-4.9,1.1c-1.6,0.2-3.5,0.4-5.5,0.9
		c0-0.3-0.2-0.5-0.3-0.6c-0.2-0.2-0.5-0.3-0.8-0.2l-5.1,1.1c-0.5,0.1-0.8,0.5-0.8,1V71c-0.4,0.2-0.8,0.4-1.2,0.6
		C10,76.1,7.5,92.1,9.3,98.9c0.1,0.4,0.5,0.8,1,0.8h11.3h57h11.1c0.5,0,0.9-0.3,1-0.8c0.3-1.3,0.5-3,0.5-4.9
		C91.1,86.3,88,75.2,80.5,71.5z M22.5,72.3v-1.6l3.1-0.7v1.2v20.4c0,0.5,0.5,1,1,1h46.8c0.5,0,1-0.5,1-1V71.3V70l3.1,0.7v1.7v25.3
		h-55V72.3z M50.3,35.6c-0.1,0-0.2,0-0.2,0h-0.2c-0.1,0-0.2,0-0.2,0c-1,0-1.9,0-2.8,0.2c-3.6,0.4-6.9,1.6-9.8,3.5
		c-0.4,0.3-0.8,0.3-1.3,0.2c-0.4-0.1-0.8-0.4-1-0.7l-0.1-0.1l-0.5-0.9l-1.2-2.1l-0.3-0.5l-1.2-2.1c0.8-1.2,7.3-3.1,18.1-3.1h0.3
		c0,0,0.1,0,0.1,0h0.3c10.8,0,17.3,1.9,18.1,3.1l-1.2,2.1l-0.3,0.6l-1.1,1.9l-0.6,1l-0.1,0.1c-0.2,0.4-0.6,0.6-1,0.7
		c-0.4,0.1-0.9,0-1.2-0.2c-2.9-1.9-6.2-3.1-9.8-3.5C52.2,35.6,51.3,35.6,50.3,35.6z M69.6,42c0,2-1.1,3.6-2.5,4.1
		c0.1-0.8,0.2-1.6,0.2-2.5v-4.5l0.6-1C68.9,39,69.6,40.4,69.6,42z M40.4,11.3h19.1c4.8,0,8.6,3.9,8.6,8.6v10.7
		c-4.1-2-12.7-2.6-18-2.6H50c-5.2,0-14,0.6-18.2,2.6V19.9C31.8,15.2,35.7,11.3,40.4,11.3z M29.9,42c0-1.8,0.9-3.3,2.2-4l0.7,1.2v4.5
		c0,0.9,0.1,1.8,0.2,2.6C31.2,46,29.9,44.2,29.9,42z M35.4,47.9c-0.2-0.7-0.3-1.3-0.4-2c-0.1-0.7-0.2-1.5-0.2-2.3v-2.4
		c0.2,0.1,0.4,0.1,0.6,0.2c0.3,0.1,0.5,0.1,0.8,0.1c0.7,0,1.4-0.2,2-0.6c3.3-2.2,7.3-3.4,11.5-3.4l0.3,0l0.3,0
		c4.2,0,8.3,1.2,11.5,3.4c0.8,0.6,1.9,0.8,2.8,0.5c0.2-0.1,0.4-0.1,0.6-0.2v2.4c0,0.8-0.1,1.7-0.2,2.5c-0.1,0.7-0.3,1.3-0.5,1.9
		c-1.1,3.7-3.7,6.9-7,8.8c-0.2,0-0.4,0.1-0.6,0.3c0,0-0.1,0.1-0.1,0.1c-2.1,1-4.4,1.6-6.8,1.6C43.1,58.9,37.2,54.2,35.4,47.9z
		 M43,59.7c1.8,1,4.2,1.2,6.1,1.2c0.1,0,0.1,0,0.2,0c0.2,0,0.4,0,0.6,0c0.2,0,0.4,0,0.5,0c0.1,0,0.1,0,0.2,0c1.9,0,4.3-0.3,6.1-1.2
		c0.3,2.6,1.3,7,3.9,8.6c0,0,0,0,0,0c0,5-3.6,7.5-10.7,7.5c-7.1,0-10.7-2.5-10.7-7.5h-0.1c0,0,0,0,0,0C41.7,66.6,42.7,62.2,43,59.7z
		 M33.4,69.7c1.5-0.2,2.9-0.4,4-0.7c0.3,4.2,2.8,8.8,12.6,8.8c9.8,0,12.4-4.5,12.6-8.7c1.1,0.3,2.3,0.4,3.8,0.6c1.8,0.2,3.8,0.5,6,1
		v19.8H27.6V70.7C29.7,70.2,31.7,69.9,33.4,69.7z M20.2,73.3c0.1,0,0.2-0.1,0.3-0.1v24.5H11C9.7,90.9,12.4,77.2,20.2,73.3z
		 M88.8,97.7h-9.3V73.3c0,0,0,0,0.1,0C87.4,77.2,90.1,90.9,88.8,97.7z"/>
</g>
</svg>
