<svg id="圖層_1" data-name="圖層 1" xmlns="http://www.w3.org/2000/svg" viewBox="0 0 110 484"><defs><style>.cls-1{fill:#7f4e25;}</style></defs><title>H1</title><path class="cls-1" d="M8.91,76.61V56.33a11.34,11.34,0,0,1,.51-3.63c.16-.34.58-.46,1.25-.38h1.12c.75,0,1.21.15,1.38.44a14.78,14.78,0,0,1,.63,3.32,8.21,8.21,0,0,1,.12,1.25,4.79,4.79,0,0,0,.13.88,17,17,0,0,0,1,4.75c.5.84,1.54,1.13,3.13.88a62.09,62.09,0,0,0,8-2.38c.58-.17,1-.29,1.25-.38.83-.25,2-.62,3.51-1.12a36.78,36.78,0,0,0,5.88-2.25A4.86,4.86,0,0,0,39,54.2a45.52,45.52,0,0,0,.25-7.89V36.8A45.33,45.33,0,0,0,39,28.92a4.82,4.82,0,0,0-2.13-3.51,36.46,36.46,0,0,0-6-2.25c-1.59-.42-2.84-.8-3.75-1.13a12.18,12.18,0,0,0-1.76-.5,73.37,73.37,0,0,0-7.26-2.13c-1.5-.17-2.5.17-3,1a20,20,0,0,0-1,5,6.89,6.89,0,0,0-.13,1.13,19.74,19.74,0,0,1-.81,4.19c-.21.38-.86.56-1.94.56h-.5c-.67,0-1.09-.12-1.25-.37a9.45,9.45,0,0,1-.51-3.38V16.27Q8.91,2,9.29,1.63a2.84,2.84,0,0,1,1.82-.38,5,5,0,0,1,1.94.25,23.5,23.5,0,0,1,1,4.51c.08.5.16,1.12.25,1.88a4.85,4.85,0,0,0,1.37,3.5q1.64,1.38,8.14,3.76,4.64,1.62,21.91,7.38Q54.23,25.41,59.36,27t14,4.63q16,5.25,20.28,6.88A44,44,0,0,1,101,41.68a2.21,2.21,0,0,1,.63,2.38,12.6,12.6,0,0,0-.13,1.63,12.73,12.73,0,0,0,.13,1.63,2.19,2.19,0,0,1-.63,2.37,38.2,38.2,0,0,1-7.13,3.13q-4.14,1.5-19.78,6.76L60.49,64.21q-38.81,13-42.31,14.4A6.07,6.07,0,0,0,15,80.86,18.58,18.58,0,0,0,13.8,86.5a14.46,14.46,0,0,1-.69,3.56c-.21.38-.86.57-1.94.57h-.5c-.67.08-1.09,0-1.25-.38a11.88,11.88,0,0,1-.51-3.75ZM44.84,53.45c.58.75,1.79.92,3.63.5s7.39-2.17,16.65-5.26c1.17-.42,2.83-1,5-1.62a118.9,118.9,0,0,0,11.65-4.26q2.74-1.5-.13-3A120.92,120.92,0,0,0,69.5,35.67c-2.17-.66-3.84-1.21-5-1.62Q54,30.66,51,29.79q-4-1.12-5.25-.87c-.59.08-1,.56-1.26,1.43s-.31,4.84-.18,11.9S44.59,53,44.84,53.45Z"/><path class="cls-1" d="M11.11,103.27a2.84,2.84,0,0,1,1.81.37c.33.08.67,1.67,1,4.76a3.23,3.23,0,0,0,.13.75q.5,4.75,1.56,5.63t6.7,1.13h1.25q11.52.24,40.31.06t29.66-.56a3.45,3.45,0,0,0,1.88-2.32,46.67,46.67,0,0,0,1-7.19,3,3,0,0,1,1.75-2.7,1.93,1.93,0,0,1,2.63.44q.38.49.25,23.53t-.5,25q-4.38,21.64-21.4,21.65Q67,173.86,60.49,161q-2-4.38-2.88-4.38T55.23,161Q49,179.62,33,178.75a21.19,21.19,0,0,1-15.77-8q-6-7.38-7.76-21Q9,146.57,9,125.3t.25-21.66A2.86,2.86,0,0,1,11.11,103.27Zm3.31,41.43q1.38,10.14,7.2,15.14t15.08,4q9.27-1,13.46-7.57t4.07-19.47v-1.75c0-1.75-.17-2.84-.5-3.25q-.75-1-3.63-1.26-2.13-.12-10-.12H30.82q-11.76,0-13.77.19c-1.33.12-2.13.56-2.38,1.31l-.12.13a33.44,33.44,0,0,0-.38,5.63A67.15,67.15,0,0,0,14.42,144.7Zm45.07-3.38q.87,9.88,6.44,14.71t15,3.81q8.27-.87,11.77-6.07T96,137.44a35.61,35.61,0,0,0-.38-5.26,2.28,2.28,0,0,0-1.63-1.5q-1-.37-16.52-.38t-16.4.38c-.92.33-1.5,1.29-1.75,2.88A34.83,34.83,0,0,0,59.49,141.32Z"/><path class="cls-1" d="M6.91,234.82Q8.55,217.56,21.68,207T55,196.52q21.9,0,35.42,12.64a40,40,0,0,1,12.83,28A38.42,38.42,0,0,1,93,266q-12.27,13.39-34.17,14.77a56.92,56.92,0,0,1-27.91-5,42.41,42.41,0,0,1-18.66-16.53A39.1,39.1,0,0,1,6.91,234.82Zm6,9q2.25,9.89,14.52,15.77Q38.58,265,53.79,265.3t27-4.57q12.78-5.37,16-15.2t-2.13-18q-5.26-7.87-17-12-12.25-4.26-27.91-3.13-19.77,1.37-29.79,10T12.92,243.84Z"/><path class="cls-1" d="M6.91,338q2.13-22.79,23-28l.38-.13a51.18,51.18,0,0,1,8.14-1.13q4.24-.24,25.41-.37H72q13.14-.14,16.65-.38c3.26-.16,5.34-.62,6.26-1.37.58-.5,1-1.76,1.13-3.76.08-.75.16-1.37.25-1.88a2.14,2.14,0,0,1,.12-.62A11.49,11.49,0,0,1,97,297c.21-.33.82-.5,1.82-.5h.63c.58-.08,1,.09,1.12.5a10.58,10.58,0,0,1,.5,3.63v31.55a10.58,10.58,0,0,1-.5,3.63c-.17.41-.54.58-1.12.5h-.76c-.91,0-1.48-.21-1.69-.63a19.72,19.72,0,0,1-.68-4.13,3.07,3.07,0,0,1-.13-.75A5.29,5.29,0,0,0,96,330c-.42-3.43-1-5.45-1.69-6.08s-2.9-1-6.58-1.19H86.65q-9.14-.24-27.54,0-18.9.13-21.28.51-24.16,3.49-21.91,25.16.89,9,6,13.83t15.78,6.57q2.11.38,22.4.56T88,369.26h.26c3.33-.09,5.31-.46,5.94-1.13s1.19-2.88,1.69-6.63v-.25a8.05,8.05,0,0,0,.13-1.5,21.49,21.49,0,0,1,.81-4.26c.21-.42.77-.63,1.69-.63h.37c1,0,1.71,2.84,2.13,8.52a125.73,125.73,0,0,1,0,15.77c-.42,5.67-1.12,8.51-2.13,8.51h-.37c-.92,0-1.48-.17-1.69-.5A16.16,16.16,0,0,1,96,383.4a5.39,5.39,0,0,0-.13-1.25c-.08-.5-.17-1.17-.25-2-.17-1.84-.54-3-1.13-3.51-.75-.67-2.58-1.08-5.5-1.25q-3.14-.25-14.77-.25H66q-20.4-.25-24.66-.37a64.49,64.49,0,0,1-9-1.13q-13.63-3-20.15-12.14T6.91,338Z"/><path class="cls-1" d="M8.91,445.11v-5.75q0-20.42.25-20.91c.26-.25,1-.36,2.2-.31s1.85.23,1.94.56l.12.63c.25,1.83.42,3.42.5,4.75q.49,5.64,1.38,6.64T20.18,432q5.88.38,39.24.19t34.36-.57a2.31,2.31,0,0,0,1.63-1.81,72,72,0,0,0,.25-8.32v-2.13q0-6.13-1-7.39t-7.26-2.63c-1.09-.25-1.92-.46-2.5-.62a20.66,20.66,0,0,0-2.38-.5A36,36,0,0,1,77,406.62q-.83-.44-.69-2.19v-1c0-2,.12-3.05.37-3.13s4.38,0,12.15.25,11.72.46,11.89.63.37,12.93.37,38.3-.08,38-.25,38.18-4.19.39-12.08.69-11.93.39-12.14.31-.31-1.13-.31-3.13.08-3.09.25-3.25a20.4,20.4,0,0,1,3.13-.76q3.26-.87,5.26-1.37c.58-.17,1.41-.38,2.5-.63q6.25-1.38,7.26-2.56t1-7.08V457.5c0-.91,0-2.17.13-3.75q.24-3.88-.63-5Q93.9,447.36,88.4,447q-4-.25-18.78-.12H41.84q-15.41-.14-19.53.12-5.64.25-7.14,1.38c-.67.58-1,1.92-1.12,4a22.66,22.66,0,0,1-.13,2.63,29.74,29.74,0,0,1-.81,5c-.21.5-.82.75-1.82.75h-.62c-.67.08-1.09-.08-1.25-.5a13.12,13.12,0,0,1-.51-4Z"/></svg>