<svg id="圖層_1" data-name="圖層 1" xmlns="http://www.w3.org/2000/svg" viewBox="0 0 110 659"><defs><style>.cls-1{fill:#7f4e25;}</style></defs><title>H1</title><path class="cls-1" d="M8.9,47.88V42.13q0-20.39.25-20.88c.25-.25,1-.36,2.18-.31s1.86.23,1.94.56l.13.63c.25,1.83.41,3.41.5,4.75.33,3.75.79,5.95,1.37,6.62s2.21,1.08,4.88,1.25q5.87.38,39.18.19t34.32-.56a2.34,2.34,0,0,0,1.62-1.82,71.65,71.65,0,0,0,.25-8.31V22.13q0-6.13-1-7.38c-.67-.83-3.08-1.71-7.25-2.62-1.08-.25-1.92-.46-2.5-.63A22.21,22.21,0,0,0,82.4,11a37.38,37.38,0,0,1-5.57-1.56c-.54-.3-.77-1-.68-2.19v-1c0-2,.12-3,.37-3.12s4.38,0,12.13.25,11.7.45,11.87.62.38,12.92.38,38.25-.09,38-.25,38.13-4.19.39-12.07.68-11.91.4-12.12.32-.31-1.13-.31-3.13.08-3.08.25-3.25a23.07,23.07,0,0,1,3.12-.75q3.26-.87,5.25-1.37c.58-.17,1.42-.38,2.5-.63,4.17-.92,6.58-1.77,7.25-2.56s1-3.15,1-7.06V60.25c0-.92,0-2.17.13-3.75q.24-3.87-.63-5-1.24-1.38-6.75-1.75-4-.26-18.75-.12H41.77q-15.38-.14-19.5.12-5.62.26-7.12,1.38c-.67.58-1.05,1.91-1.13,4a22.94,22.94,0,0,1-.12,2.62,30.4,30.4,0,0,1-.82,5c-.2.5-.81.75-1.81.75h-.62c-.67.08-1.09-.08-1.25-.5a13.16,13.16,0,0,1-.5-4Z"/><path class="cls-1" d="M6.9,134q1.62-17.25,14.75-27.75T54.9,95.75q21.87,0,35.37,12.62a39.92,39.92,0,0,1,12.81,28A38.35,38.35,0,0,1,92.9,165.12Q80.65,178.5,58.77,179.87a56.78,56.78,0,0,1-27.87-5,42.27,42.27,0,0,1-18.63-16.5A39.05,39.05,0,0,1,6.9,134Zm6,9q2.25,9.87,14.5,15.75,11.12,5.37,26.31,5.69t26.94-4.57q12.75-5.37,16-15.18t-2.13-17.94q-5.25-7.87-17-12-12.26-4.26-27.87-3.13Q29.89,113,19.9,121.56T12.9,143Z"/><path class="cls-1" d="M8.77,216.25q.13-19.5.5-19.88a2.84,2.84,0,0,1,1.81-.37,2.86,2.86,0,0,1,1.82.37c.33.09.66,1.67,1,4.75a3.49,3.49,0,0,0,.12.75c.33,3.17.86,5,1.56,5.63s3.07,1,7.07,1.12h.75q11.37.25,40.25.07t29.75-.57a3.42,3.42,0,0,0,1.87-2.31,46,46,0,0,0,1-7.06,3.41,3.41,0,0,1,1.81-2.81,1.85,1.85,0,0,1,2.57.43q.38.51.25,22.19t-.63,23.94Q98.14,255.37,92,261.69T75,268.37Q61.4,269,54,259.56T45.9,231.12V229a15.33,15.33,0,0,0-.5-4.13c-.42-.83-1.46-1.37-3.13-1.62q-1.62-.13-8.25-.13H27.15c-4.67,0-7.63.09-8.88.25-1.75.17-2.87.67-3.37,1.5a14.21,14.21,0,0,0-.88,4.38,8.86,8.86,0,0,1-.12,1.62c-.09,1.09-.25,2.5-.5,4.25l-.13.88c-.17.33-.83.52-2,.56s-1.87-.08-2.12-.37S8.77,229.25,8.77,216.25Zm42.38,18q2.12,19.88,22.5,19.87,11.37,0,16.62-5.43t5.5-17.44a26.58,26.58,0,0,0-.06-5.94,2.46,2.46,0,0,0-1.56-1.69q-.63-.37-18.94-.56t-21.06.06a3.22,3.22,0,0,0-3,2.63Q50.52,228.12,51.15,234.25Z"/><path class="cls-1" d="M6.9,345.75a51.65,51.65,0,0,1,5.37-20,5.78,5.78,0,0,0,.5-1c.58-1.17,1.23-1.84,1.94-2a38.86,38.86,0,0,1,6.69,0q1.5.12,2.37.12c.58,0,1.42,0,2.5.13q5.75.12,6.69.5c.62.25.94,1,.94,2.25v1.62c0,1.25-.25,2-.75,2.38a27.68,27.68,0,0,1-5.5,1.62c-.92.25-1.63.42-2.13.5q-8.13,1.88-9.75,3.13c-1.08.83-2,3-2.62,6.5a29.42,29.42,0,0,0,.37,15.5,18.17,18.17,0,0,0,7.25,10.25,15,15,0,0,0,12.13,2.12,13.57,13.57,0,0,0,7.93-4.44q2.94-3.44,7.32-13.43,7.74-18,16.75-24.19T86,325.37q8.25,2.75,13,11.75a36.61,36.61,0,0,1,4.25,19.13,39.14,39.14,0,0,1-6,20l-.25.37a2.94,2.94,0,0,1-2.19,1.31,85.73,85.73,0,0,1-9.31-.18H85c-.42,0-1-.05-1.75-.13-2.83-.08-4.48-.25-4.94-.5s-.68-1.08-.68-2.5v-1.75c-.09-1.17.12-1.92.62-2.25a24,24,0,0,1,5.13-1.5c.91-.17,1.66-.33,2.25-.5q7.62-1.87,9.25-3.19t2.25-5.93a23.59,23.59,0,0,0-1.88-14,15.27,15.27,0,0,0-8.62-7.88,15.46,15.46,0,0,0-12.25.88,15,15,0,0,0-6,5.25Q66,347.25,61.65,357q-6.26,14.37-12,19.81t-15,5.81q-11.88.5-19.19-7.19T6.9,353.37A56.89,56.89,0,0,1,6.9,345.75Z"/><path class="cls-1" d="M8.9,468.12V447.87a11.45,11.45,0,0,1,.5-3.63c.16-.33.58-.45,1.25-.37h1.12c.75,0,1.21.14,1.38.44a15.59,15.59,0,0,1,.62,3.31,8.41,8.41,0,0,1,.13,1.25,5.29,5.29,0,0,0,.12.87,17.31,17.31,0,0,0,1,4.75c.5.84,1.54,1.13,3.13.88a62.62,62.62,0,0,0,8-2.38c.58-.16,1-.29,1.25-.37.83-.25,2-.63,3.5-1.13a36.12,36.12,0,0,0,5.87-2.25,4.8,4.8,0,0,0,2.13-3.5,45.25,45.25,0,0,0,.25-7.87v-9.5a45.45,45.45,0,0,0-.25-7.88,4.82,4.82,0,0,0-2.13-3.5,35.83,35.83,0,0,0-6-2.25c-1.58-.41-2.83-.79-3.75-1.12a12,12,0,0,0-1.75-.5A72.69,72.69,0,0,0,18,411c-1.5-.16-2.5.17-3,1a20.46,20.46,0,0,0-1,5,7.88,7.88,0,0,0-.12,1.13,20.14,20.14,0,0,1-.82,4.19c-.2.37-.85.56-1.93.56h-.5c-.67,0-1.09-.13-1.25-.38a9.41,9.41,0,0,1-.5-3.37V407.87q0-14.25.37-14.63a2.84,2.84,0,0,1,1.81-.37,4.9,4.9,0,0,1,1.94.25,22.62,22.62,0,0,1,1,4.5c.08.5.17,1.12.25,1.87a4.8,4.8,0,0,0,1.38,3.5q1.62,1.38,8.12,3.75,4.62,1.63,21.88,7.38,8.49,2.88,13.62,4.5t14,4.62q16,5.25,20.25,6.88a45.24,45.24,0,0,1,7.38,3.12,2.23,2.23,0,0,1,.62,2.38,11.06,11.06,0,0,0,0,3.25,2.21,2.21,0,0,1-.62,2.37,38.54,38.54,0,0,1-7.13,3.13q-4.12,1.5-19.75,6.75L60.4,455.74q-38.76,13-42.25,14.38A6.12,6.12,0,0,0,15,472.37,18.48,18.48,0,0,0,13.77,478a14.71,14.71,0,0,1-.69,3.57c-.2.37-.85.56-1.93.56h-.5c-.67.08-1.09,0-1.25-.38A12,12,0,0,1,8.9,478ZM44.77,445c.58.75,1.79.92,3.63.5s7.37-2.16,16.62-5.25c1.17-.41,2.83-.95,5-1.62a116,116,0,0,0,11.63-4.25q2.75-1.5-.13-3a120.84,120.84,0,0,0-12.12-4.13q-3.25-1-5-1.62-10.5-3.37-13.5-4.25-4-1.12-5.25-.88c-.59.09-1,.57-1.25,1.44s-.32,4.83-.19,11.88S44.52,444.58,44.77,445Z"/><path class="cls-1" d="M11.08,494.93c1.21,0,1.9.19,2.07.44a6.54,6.54,0,0,1,.37,1.62c.08.42.17,1,.25,1.75q.63,6.25,1.69,7.31c.71.71,2.89,1.15,6.56,1.32H23.4q11.37.24,40.25.06t29.75-.56a3.46,3.46,0,0,0,1.87-2.32,46.68,46.68,0,0,0,1-7.18,3.85,3.85,0,0,1,.56-2.19,2.94,2.94,0,0,1,1.94-.44h.5c.58-.08,1,.08,1.13.5a12.32,12.32,0,0,1,.5,3.75v16q-.14,10.88-.13,13.88a15.84,15.84,0,0,1-.62,5q-.25.75-1.38.87h-.25c-1,0-1.6-.19-1.81-.56a17.32,17.32,0,0,1-.69-4.06v-.63a37.62,37.62,0,0,0-.87-5.31,3,3,0,0,0-1.63-1.81q-.87-.51-38.62-.5t-38.75.5a2.8,2.8,0,0,0-1.57,2.5q-.18,1.88-.18,12.37v4.5a41.13,41.13,0,0,0,.25,7.63,4.52,4.52,0,0,0,2,3.37,31.49,31.49,0,0,0,5.75,1.63c1.41.33,2.54.58,3.37.75.5.08,1.21.25,2.13.5a37.19,37.19,0,0,1,6.37,1.75c.58.33.88,1.16.88,2.5v1.5c0,1.41-.15,2.23-.44,2.43a7.89,7.89,0,0,1-3.19.19h-.87q-20.88-.25-21.38-.75Q8.9,563,8.9,529.37t.18-34.07C9.21,495,9.88,494.89,11.08,494.93Z"/><path class="cls-1" d="M8.77,615.87q.13-35,.5-35.38a2.84,2.84,0,0,1,1.81-.37,2.86,2.86,0,0,1,1.82.37c.33.08.66,1.67,1,4.75A3.49,3.49,0,0,0,14,586c.33,3.17.86,5,1.56,5.63s3.07,1,7.07,1.12h.75q11.37.25,40.25.06t29.75-.56a3.46,3.46,0,0,0,1.87-2.31,46.88,46.88,0,0,0,1-7.19A3.48,3.48,0,0,1,98,580.12a2.06,2.06,0,0,1,2.69.25q.24.38.25,34.12t-.32,34.13c-.2.16-4.08.29-11.62.37s-11.44,0-11.69-.12-.37-1.13-.37-2.88.14-2.67.43-3,2.94-1,7.94-2.12q1.13-.25,3-.63a20.41,20.41,0,0,0,5.13-1.5,4.15,4.15,0,0,0,2-3.25,65.35,65.35,0,0,0,.12-7.75v-9.87a42,42,0,0,0-.25-7.63A3.77,3.77,0,0,0,92,607.49a56.63,56.63,0,0,0-8.87-.25H71.27a87.76,87.76,0,0,0-9.25.13c-1.75.25-2.83.87-3.25,1.87-.33.75-.46,2.46-.37,5.13v4.37q0,6.38.87,7.56c.58.8,2.63,1.44,6.13,1.94a5.69,5.69,0,0,0,1,.13h.5a17.86,17.86,0,0,1,4.37.87q.63.38.63,2.13v1.25c.08.75-.05,1.2-.38,1.37a6,6,0,0,1-3.12.5c-1.25.08-4.13.13-8.63.13h-7.5c-4.5,0-7.37,0-8.62-.13a6,6,0,0,1-3.13-.5c-.33-.17-.46-.62-.37-1.37v-1c0-1.25.18-2,.56-2.25a15.07,15.07,0,0,1,4.06-.88,1.15,1.15,0,0,1,.5-.12,5.81,5.81,0,0,0,1-.13,23.05,23.05,0,0,0,5.13-1,3.67,3.67,0,0,0,1.87-2.87,51.85,51.85,0,0,0,.13-7.13v-3.62c0-2.42-.17-3.92-.5-4.5-.42-.92-1.59-1.5-3.5-1.75a92,92,0,0,0-9.5-.13H34q-13.76,0-16.19.19t-3,1.44q-.55,1.25-.56,15.62t.63,15.44q.49.93,7.75,3.06t10.12,2.13c.42,0,.71.89.88,2.68a7.12,7.12,0,0,1-.25,3.57q-.26.38-11.94.25t-12.31-.5Q8.78,650.75,8.77,615.87Z"/></svg>