<svg id="圖層_1" data-name="圖層 1" xmlns="http://www.w3.org/2000/svg" viewBox="0 0 110 403"><defs><style>.cls-1{fill:#7f4e25;}</style></defs><title>H1</title><path class="cls-1" d="M8.74,77.5q9.12-6.87,34.75-25.12,4.24-3.14,11.5-8.25Q75.24,29.51,78.61,26.94t3.25-3.06v-.13c0-.67-.42-1.08-1.25-1.25a58.65,58.65,0,0,0-8.75-.37q-5,0-23.87.12H37.86q-12.75,0-16.25.25-4.75.26-6.12,1.63c-.59.58-1,2-1.13,4.25-.08,1.16-.17,2.12-.25,2.87a5.51,5.51,0,0,1-.12.88,22.42,22.42,0,0,1-.88,4.93c-.25.46-.87.69-1.87.69h-.63c-.67,0-1.08-.12-1.25-.37a8.51,8.51,0,0,1-.5-3.13V8.75a10,10,0,0,1,.5-3.5c.17-.33.54-.5,1.13-.5H11A4.19,4.19,0,0,1,12.8,5a1.83,1.83,0,0,1,.69,1.13q1,6.12,1.43,7.68a3,3,0,0,0,1.57,2.07q1,.49,37.62.81t38.31-.19a3.67,3.67,0,0,0,2.38-1.87,18.34,18.34,0,0,0,1.19-5,1.11,1.11,0,0,1,.12-.5,10.86,10.86,0,0,1,.69-3.19c.21-.3.81-.44,1.81-.44a1.81,1.81,0,0,1,1.88,1.56c.16,1,.29,4.27.37,9.94q0,11.25-.25,11.75T69.36,51.38c-.42.33-1.08.83-2,1.5Q43.48,70,39.49,72.94c-2.67,2-4.13,3.23-4.38,3.81-.33.83-.17,1.33.5,1.5a47.08,47.08,0,0,0,7.75.5q4.5.12,21.63,0h9.25q11.63,0,14.75-.25c2.91-.25,4.75-.83,5.5-1.75.58-.67,1-2.25,1.12-4.75.08-1.33.17-2.37.25-3.12A7.16,7.16,0,0,1,96,67.63a16.22,16.22,0,0,1,.68-3.82c.21-.37.77-.56,1.69-.56h.38c1,0,1.7,2.83,2.12,8.5a125.41,125.41,0,0,1,0,15.75c-.42,5.67-1.08,8.5-2,8.5h-.25c-1,0-1.6-.15-1.81-.44A12.56,12.56,0,0,1,96,92.25a1.87,1.87,0,0,1-.13-.5c-.08-.58-.17-1.33-.25-2.25-.08-1.83-.54-3-1.37-3.5-1.09-.67-3.75-1.12-8-1.37q-4.63-.13-21.63-.25H50.11q-41.25-.13-41.62-.5c-.34-.34-.48-1.38-.44-3.13S8.32,77.92,8.74,77.5Z"/><path class="cls-1" d="M8.74,148.12q.12-35,.5-35.37a2.8,2.8,0,0,1,1.81-.38,2.8,2.8,0,0,1,1.81.38c.33.08.67,1.67,1,4.75a3.07,3.07,0,0,0,.13.75q.49,4.75,1.56,5.62c.71.59,3.06,1,7.06,1.13h.75q11.37.25,40.25.06t29.75-.56a3.48,3.48,0,0,0,1.88-2.31,48.24,48.24,0,0,0,1-7.19,3.48,3.48,0,0,1,1.68-2.63,2.07,2.07,0,0,1,2.69.25q.26.38.25,34.13t-.31,34.12q-.31.25-11.63.38t-11.68-.13c-.25-.16-.38-1.12-.38-2.87s.15-2.67.44-3,2.94-1,7.94-2.13l3-.62a20.29,20.29,0,0,0,5.12-1.5,4.15,4.15,0,0,0,2-3.25,62.36,62.36,0,0,0,.13-7.75v-9.88a41.9,41.9,0,0,0-.25-7.62A3.77,3.77,0,0,0,92,139.75a56.71,56.71,0,0,0-8.88-.25H71.24a91.9,91.9,0,0,0-9.25.12c-1.75.25-2.84.88-3.25,1.88-.34.75-.46,2.46-.38,5.12V151q0,6.38.88,7.56t6.12,1.94a5.62,5.62,0,0,0,1,.12h.5a18.3,18.3,0,0,1,4.38.88c.41.25.62,1,.62,2.12v1.25c.08.75,0,1.21-.37,1.38a6,6,0,0,1-3.13.5q-1.87.12-8.62.12h-7.5q-6.75,0-8.63-.12a5.94,5.94,0,0,1-3.12-.5c-.34-.17-.46-.63-.38-1.38v-1c0-1.25.19-2,.56-2.25a15.38,15.38,0,0,1,4.07-.87,1.13,1.13,0,0,1,.5-.13,5.62,5.62,0,0,0,1-.12,23.06,23.06,0,0,0,5.12-1,3.68,3.68,0,0,0,1.88-2.88,54.16,54.16,0,0,0,.12-7.12v-3.63c0-2.41-.17-3.91-.5-4.5-.42-.91-1.58-1.5-3.5-1.75q-2-.24-9.5-.12H34q-13.76,0-16.19.19c-1.63.12-2.63.6-3,1.43s-.56,6-.56,15.63.29,14.81.62,15.44,2.92,1.64,7.75,3.06,8.21,2.12,10.13,2.12c.41,0,.7.9.87,2.69a7,7,0,0,1-.25,3.56q-.26.38-11.94.25t-12.31-.5Q8.74,183,8.74,148.12Z"/><path class="cls-1" d="M8.36,231.5q.38-.37,42.13-12.38l14.75-4.25q17-4.87,21.5-6.37c4.25-1.34,6.91-2.5,8-3.5A5.1,5.1,0,0,0,96,201.37a15.89,15.89,0,0,1,.12-2.12,10,10,0,0,1,.56-3.19c.21-.29.82-.44,1.82-.44h.12q1.24.13,1.5.75a15.43,15.43,0,0,1,.63,4.88q0,2.75.12,13.12v14.5a15.47,15.47,0,0,1-.5,4.25c-.17.42-.54.59-1.12.5h-.5c-1.09,0-1.73-.16-1.94-.5a14.47,14.47,0,0,1-.69-3.75,2.14,2.14,0,0,1-.12-.62c-.09-.5-.17-1.17-.25-2-.17-2.09-.55-3.34-1.13-3.75q-1.24-.88-5.87,0-3.26.62-15.25,3.75l-8,2.12q-24.37,6.38-28.5,7.57c-2.75.79-4.25,1.47-4.5,2.06s.16,1.12,1.25,1.62q2.11,1,11.5,4Q52,246.25,77.11,254l7.13,2.12a3.07,3.07,0,0,0,.75.25,45.36,45.36,0,0,0,7,1.88c1.41.16,2.33-.21,2.75-1.13a20,20,0,0,0,1.12-4.87v-.5A7.16,7.16,0,0,1,96,250.5a14.16,14.16,0,0,1,.68-3.63c.21-.33.77-.5,1.69-.5h.38c1,0,1.7,3.21,2.12,9.63a163.76,163.76,0,0,1,0,18c-.42,6.41-1.12,9.62-2.12,9.62h-.38c-.92,0-1.48-.18-1.69-.56a16.08,16.08,0,0,1-.68-3.81,9.51,9.51,0,0,1-.13-1.38,27.32,27.32,0,0,0-1-5.5,2.47,2.47,0,0,0-1.81-1.56q-1.32-.31-30.75,8.81t-29.94,10c-.33.59-.17,1,.5,1.38A46.44,46.44,0,0,0,40,293.37q4.24,1.26,19.87,5.38c1.33.41,2.38.71,3.13.87q3.12.88,8.37,2.25,13.13,3.51,16.63,4.25,5,1,6.37.13c.58-.42,1-1.67,1.25-3.75.08-.92.17-1.63.25-2.13a1.9,1.9,0,0,1,.13-.62,17.42,17.42,0,0,1,.81-3.81c.21-.38.81-.57,1.81-.57h.5c.67,0,1.08.13,1.25.38a10.3,10.3,0,0,1,.5,3.37v11.75q-.12,8.25-.12,10.5a9.69,9.69,0,0,1-.63,3.88c-.17.33-.62.54-1.37.62h-.25c-1,0-1.61-.18-1.82-.56A16.08,16.08,0,0,1,96,321.5a1.07,1.07,0,0,1-.13-.5,23.54,23.54,0,0,0-1.25-5.56A4,4,0,0,0,92,313.5l-18.5-5q-15-4.12-23.75-6.5Q8.61,290.87,8.36,290.37a11,11,0,0,1-.25-3.25,13.5,13.5,0,0,1,.25-3.37q.5-.51,32.88-10.75c.33-.09.83-.25,1.5-.5q24.24-7.75,28.75-9.38,5-1.62,5.12-2.5c.08-.58-.29-1.08-1.12-1.5q-1.76-.75-8.63-3-5-1.5-23.5-7.12-7.62-2.25-20.5-6.25-11.13-3.37-11.75-3.5l-.25-.13c-1.42-.41-2.23-.81-2.44-1.18a8.82,8.82,0,0,1-.31-3.07A13.5,13.5,0,0,1,8.36,231.5Z"/><path class="cls-1" d="M6.86,360.62a51.49,51.49,0,0,1,5.38-20,6.16,6.16,0,0,0,.5-1c.58-1.17,1.22-1.83,1.93-2a38.86,38.86,0,0,1,6.69,0c1,.08,1.79.13,2.38.13s1.41,0,2.5.12q5.75.12,6.68.5c.63.25.94,1,.94,2.25v1.63q0,1.88-.75,2.37a27.12,27.12,0,0,1-5.5,1.63c-.92.25-1.62.41-2.12.5q-8.13,1.88-9.75,3.12c-1.09.83-2,3-2.63,6.5a29.41,29.41,0,0,0,.38,15.5,18.12,18.12,0,0,0,7.25,10.25,15,15,0,0,0,12.12,2.13,13.62,13.62,0,0,0,7.94-4.44q2.94-3.44,7.31-13.44,7.76-18,16.75-24.19T86,340.25Q94.24,343,99,352a36.58,36.58,0,0,1,4.25,19.12,39.11,39.11,0,0,1-6,20l-.25.38a3,3,0,0,1-2.19,1.31,90.16,90.16,0,0,1-9.31-.19H85c-.42,0-1,0-1.75-.12-2.84-.09-4.48-.25-4.94-.5s-.69-1.09-.69-2.5v-1.75q-.12-1.75.63-2.25a22.58,22.58,0,0,1,5.12-1.5c.92-.17,1.67-.34,2.25-.5q7.62-1.87,9.25-3.19t2.25-5.94a23.59,23.59,0,0,0-1.87-14,15.27,15.27,0,0,0-8.63-7.87,15.46,15.46,0,0,0-12.25.87,15.12,15.12,0,0,0-6,5.25,100.59,100.59,0,0,0-6.75,13.25q-6.26,14.37-12,19.81t-15,5.82q-11.88.5-19.19-7.19T6.86,368.25A57,57,0,0,1,6.86,360.62Z"/></svg>