<svg id="圖層_1" data-name="圖層 1" xmlns="http://www.w3.org/2000/svg" viewBox="0 0 110 510"><defs><style>.cls-1{fill:#7f4e25;}</style></defs><title>H1</title><path class="cls-1" d="M9,31.13V25.75q0-19,.37-19.37A2.82,2.82,0,0,1,11.16,6,2.84,2.84,0,0,1,13,6.38c.33.08.66,1.66,1,4.75a33.69,33.69,0,0,0,.75,4.81,3.23,3.23,0,0,0,1.37,1.94q.63.5,37.94.68T93,18.25a3.1,3.1,0,0,0,2.12-1.69,26.7,26.7,0,0,0,1-5.68,15.75,15.75,0,0,1,.75-4.25c.25-.42.92-.63,2-.63h.5c.58-.08,1,.08,1.13.5a10.86,10.86,0,0,1,.5,3.63V41.38a10.77,10.77,0,0,1-.5,3.62c-.17.42-.55.58-1.13.5h-.5c-1.08,0-1.75-.19-2-.56a9.67,9.67,0,0,1-.62-3.31A14.69,14.69,0,0,0,96.1,40a15.5,15.5,0,0,0-1-5c-.58-.92-2-1.5-4.12-1.75-1.59-.17-5.25-.25-11-.25H69.6c-4.08-.08-6.67,0-7.75.38Q59.6,34,59,36.88a63.32,63.32,0,0,0-.25,9.5V57.75q0,12.12.18,14.19c.13,1.37.52,2.23,1.19,2.56s6.29.63,16.63.63,15.93-.19,16.81-.57,1.58-1.52,2.12-3.43a24.65,24.65,0,0,0,.82-6.75c0-1.09.79-1.63,2.37-1.63h.5c.58-.08,1,.08,1.13.5a10.86,10.86,0,0,1,.5,3.63V98.13a10.77,10.77,0,0,1-.5,3.62c-.17.42-.55.58-1.13.5h-.5c-1.08,0-1.75-.21-2-.62a16,16,0,0,1-.75-4.25,36.46,36.46,0,0,0-.87-5.5A3.53,3.53,0,0,0,93.6,90q-1-.5-38.62-.44t-38.69.57a2.64,2.64,0,0,0-1.44,1.68A37,37,0,0,0,14,97a24.39,24.39,0,0,1-.82,4.63c-.2.41-.85.62-1.93.62h-.5c-.67.08-1.09,0-1.25-.37A12,12,0,0,1,9,98.13V66.88a12,12,0,0,1,.5-3.75c.16-.34.58-.46,1.25-.38h.5c1.08,0,1.73.21,1.93.63A22.49,22.49,0,0,1,14,67.75a5.51,5.51,0,0,0,.12.88c.25,2.5.67,4.08,1.25,4.75.92.91,2.92,1.5,6,1.75q3.38.24,15.88.12H45q4.88.12,6.12-.37,1.88-.75,2.25-3.75A73.68,73.68,0,0,0,53.6,61V54.13q0-2.88.13-7.38.12-7.87-.38-9.87a4.25,4.25,0,0,0-3.25-3.63c-1.25-.33-4.25-.46-9-.37q-4.38.12-7,.12h-5c-5.33,0-8.71.08-10.12.25-2.09.17-3.42.63-4,1.38a12.26,12.26,0,0,0-.88,3.87A10.9,10.9,0,0,1,14,40.38a23.62,23.62,0,0,1-.82,4.5c-.2.41-.85.62-1.93.62h-.5c-.67.08-1.09,0-1.25-.37A12,12,0,0,1,9,41.38Z"/><path class="cls-1" d="M7,156.5q1.62-17.25,14.75-27.75T55,118.25q21.87,0,35.37,12.62a39.92,39.92,0,0,1,12.81,28A38.35,38.35,0,0,1,93,187.62Q80.72,201,58.85,202.37a56.78,56.78,0,0,1-27.87-5,42.27,42.27,0,0,1-18.63-16.5A39,39,0,0,1,7,156.5Zm6,9q2.25,9.87,14.5,15.75,11.11,5.37,26.31,5.69t26.94-4.57q12.75-5.37,16-15.18T94.6,149.25q-5.25-7.87-17-12Q65.35,133,49.73,134.12,30,135.5,20,144.06T13,165.5Z"/><path class="cls-1" d="M8.85,290.5Q18,283.62,43.6,265.37q4.24-3.12,11.5-8.25,20.25-14.62,23.63-17.18T82,236.87v-.12c0-.67-.42-1.09-1.25-1.25a58.18,58.18,0,0,0-8.75-.38q-5,0-23.88.13H38q-12.75,0-16.25.25c-3.17.16-5.21.71-6.13,1.62-.58.59-1,2-1.12,4.25-.09,1.17-.17,2.13-.25,2.88a5.83,5.83,0,0,1-.13.87,22.07,22.07,0,0,1-.87,4.94c-.25.46-.88.69-1.88.69h-.62c-.67,0-1.09-.13-1.25-.38a8.44,8.44,0,0,1-.5-3.12v-25.5a9.94,9.94,0,0,1,.5-3.5c.16-.34.54-.5,1.12-.5h.5a4.16,4.16,0,0,1,1.81.25,1.76,1.76,0,0,1,.69,1.12q1,6.13,1.44,7.69a2.93,2.93,0,0,0,1.56,2.06q1,.51,37.63.82t38.31-.19a3.66,3.66,0,0,0,2.37-1.88,17.78,17.78,0,0,0,1.19-5,1.07,1.07,0,0,1,.13-.5,11.39,11.39,0,0,1,.68-3.18c.21-.3.82-.44,1.82-.44a1.8,1.8,0,0,1,1.87,1.56c.17,1,.29,4.27.38,9.94,0,7.5-.09,11.41-.25,11.75s-10.67,7.79-31.25,22.62c-.42.34-1.09.84-2,1.5Q43.6,283,39.6,285.94c-2.67,1.95-4.12,3.22-4.37,3.81-.34.83-.17,1.33.5,1.5a48.21,48.21,0,0,0,7.75.5q4.5.12,21.62,0h9.25q11.63,0,14.75-.25c2.92-.25,4.75-.84,5.5-1.75.58-.67,1-2.25,1.13-4.75.08-1.34.16-2.38.25-3.13a8.21,8.21,0,0,1,.12-1.25,16,16,0,0,1,.69-3.81c.21-.37.77-.56,1.69-.56h.37q1.5,0,2.13,8.5a125.41,125.41,0,0,1,0,15.75c-.42,5.66-1.09,8.5-2,8.5h-.25c-1,0-1.61-.15-1.82-.44a13.15,13.15,0,0,1-.81-3.31,2.15,2.15,0,0,1-.12-.5c-.09-.59-.17-1.34-.25-2.25-.09-1.84-.55-3-1.38-3.5q-1.62-1-8-1.38-4.62-.12-21.62-.25H50.23Q9,297.25,8.6,296.87c-.33-.33-.48-1.37-.44-3.12S8.44,290.91,8.85,290.5Z"/><path class="cls-1" d="M7,363q1.62-17.25,14.75-27.75T55,324.75q21.87,0,35.37,12.62a39.9,39.9,0,0,1,12.81,28A38.36,38.36,0,0,1,93,394.12Q80.72,407.5,58.85,408.87a56.89,56.89,0,0,1-27.87-5,42.27,42.27,0,0,1-18.63-16.5A39.05,39.05,0,0,1,7,363Zm6,9q2.25,9.87,14.5,15.75,11.11,5.37,26.31,5.68t26.94-4.56q12.75-5.37,16-15.19T94.6,355.75q-5.25-7.87-17-12-12.25-4.26-27.87-3.13Q30,342,20,350.56T13,372Z"/><path class="cls-1" d="M7.73,493.37c.33-3.17.87-5.33,1.62-6.5q1.38-2.25,5.25-3.75a113.41,113.41,0,0,1,12.13-3.5q12.75-3.25,17.12-5.12,5.25-2.25,6.88-5.75,1.37-2.88,1.37-10.13v-1.5c.08-1.92-.08-3.12-.5-3.62q-.63-1.12-3.75-1.38C46.43,452,43,452,37.6,452H28.48q-7.76,0-9.75.25-2.88.24-3.75,1.5a11.09,11.09,0,0,0-.88,3.87A12.25,12.25,0,0,1,14,459.5a24.39,24.39,0,0,1-.82,4.62c-.2.42-.85.63-1.93.63h-.5c-.67.08-1.09-.09-1.25-.5A11.12,11.12,0,0,1,9,460.5V429.25a11,11,0,0,1,.5-3.75c.16-.42.58-.59,1.25-.5h.5c1.08,0,1.73.2,1.93.62a23.62,23.62,0,0,1,.82,4.5,3.49,3.49,0,0,0,.12.75c.33,3.17.86,5,1.56,5.63s3.07.95,7.07,1.12h.75q11.37.25,40.25.06t29.75-.56a3.46,3.46,0,0,0,1.87-2.31,46.88,46.88,0,0,0,1-7.19A3.48,3.48,0,0,1,98,425a2.06,2.06,0,0,1,2.69.25q.24.38.25,21.62t-.25,24.25q-1.38,14.37-10.25,22-8.39,7.25-18.13,4.63Q61.85,495,56.6,482.37q-1.62-3.75-2.37-4c-.5-.17-1.34.71-2.5,2.63q-3.13,5.25-7,7.18T25.6,494.37l-1.25.38c-4.92,1.33-7.81,2.33-8.69,3S14.23,500.16,14,503a3.07,3.07,0,0,0-.13.75,2.14,2.14,0,0,1-.12.62,11.54,11.54,0,0,1-.57,3.38c-.2.33-.83.5-1.87.5a14.85,14.85,0,0,1-1.88-.07c-.2,0-.39-.27-.56-.68a27.83,27.83,0,0,1-1-6.44A48.6,48.6,0,0,1,7.73,493.37Zm49.5-27.75A19.5,19.5,0,0,0,64,479a19.77,19.77,0,0,0,12.37,5,18.29,18.29,0,0,0,12.5-3.75q5.75-4.38,6.88-12.63a40,40,0,0,0,.18-10.19c-.37-3-1-4.73-1.93-5.06Q93,452,76.35,452t-17.5.37Q55.85,453.62,57.23,465.62Z"/></svg>