<?xml version="1.0" encoding="utf-8"?>
<!-- Generator: Adobe Illustrator 23.0.5, SVG Export Plug-In . SVG Version: 6.00 Build 0)  -->
<svg version="1.1" id="圖層_1" xmlns="http://www.w3.org/2000/svg" xmlns:xlink="http://www.w3.org/1999/xlink" x="0px" y="0px"
	 viewBox="0 0 1000 1000" style="enable-background:new 0 0 1000 1000;" xml:space="preserve">
<style type="text/css">
	.st0{fill:#FFFFFF;}
</style>
<title>LOGO2-W</title>
<path class="st0" d="M146.9,393.5c-4.3,0-7.8,3.4-7.8,7.7v0.1c0,4.3,3.5,7.7,7.8,7.7H457c22.5,0,40.7,18.2,40.7,40.7v390.6H66.3
	V519.7c0-4.3,3.5-7.8,7.8-7.8c2.7,0,5.1,1.4,6.6,3.6l6.4,10c6.2,9.7,13.2,19,20.8,27.7c83.7,96.1,229.4,106.3,325.6,22.6
	c7.3-6.4,14.2-13.2,20.6-20.4c1.3-1.4,2-3.3,2-5.2l0,0c0-4.3-3.5-7.8-7.8-7.8c-2.2,0-4.3,1-5.8,2.6
	c-79.4,88.7-215.7,96.2-304.4,16.8C94.5,522.8,68.7,467.6,66.5,409c-0.1-2.6-0.2-5.2-0.2-7.8s0.1-5.2,0.2-7.8c0.3-7,0.8-14,1.8-20.8
	c0.9-7,2.2-14,3.8-20.8c22.4-95.2,108-166.3,209.9-166.3c99.8,0,184,68.2,208.4,160.4c0.9,3.4,4,5.9,7.5,5.9l0,0
	c4.3,0,7.8-3.5,7.8-7.9c0-0.7-0.1-1.4-0.3-2C479.3,243.1,389,170,282,170c-110.6,0-203.2,78-225.9,181.9c-1.5,6.8-2.7,13.8-3.5,20.8
	c-0.8,6.9-1.4,13.8-1.6,20.8h-0.2V856h462.5V393.5H146.9z"/>
<path class="st0" d="M794.5,448.9c-1.3-0.6-2.3-1.9-2.4-3.3c-0.1-3.2,0-6.4,0.3-9.6c1.4-22.7,2-37.8,1.8-45.2
	c-0.2-9-1.3-13.8-3.4-14.5c-1.9-0.5-5.6,1.9-11.1,7.1c-22.5,22-50.3,39.4-83.2,52.3c-2.5,1.1-5.1,1.9-7.7,2.6
	c-0.9,0.2-1.8-0.2-2.2-0.9c-0.5-0.7-0.3-1.7,0.4-2.2c0.7-0.7,3-2,6.9-4c14.5-7.7,28.2-16.6,41.1-26.8c13.3-10.5,24-20.8,32.1-31
	c3.5-4.2,5.4-7,5.5-8.5c0.2-1.8-1.6-2.9-5.3-3.4c-3-0.4-9.6-0.5-19.8-0.5c-17.4,0-30.9,0.6-40.4,1.9c-0.9,0-1.8,0.1-2.7,0.3
	c-4.6,0.7-7.4,1-8.3,0.8s-1.9-1.3-2.8-3.4c-0.4-0.7-0.6-1.2-0.8-1.6c-1.8-3.9-2.6-6.1-2.5-6.7s1.4-0.8,3.8-0.4
	c10.2,0.9,29.2,1.3,57.1,1.3h9.5c13,0,21.2-0.3,24.6-0.8c4.9-0.7,7.8-2.6,8.7-5.8c0.5-2.1,0.3-7.4-0.5-15.9
	c-0.2-2.6-0.3-4.7-0.5-6.1c-0.4-2.3-0.2-3.5,0.5-3.6s3.3,0.6,7.7,2l0.3,0.3c7.2,2.3,11.7,4.2,13.6,5.8c1.9,1.6,1.5,3.1-0.9,4.5
	c-1.4,0.9-2.4,3.3-3,7.3s-0.4,6.9,0.7,8.9c0.9,1.8,2.8,2.8,5.8,3s13,0.4,30.1,0.4h9.3c12.5,0,20-0.3,22.6-0.9
	c2.5-0.6,5.2-2.7,7.8-6.2c0.7-1,1.3-1.9,1.8-2.6c2.6-3.3,4.7-5.1,6.1-5.3c1.2,0,4,1.6,8.3,4.9c3.7,2.7,7,5.7,10,9.1
	c2.4,2.8,3.3,4.8,2.8,5.8c-0.7,1.6-3,2.5-6.7,2.6s-16.6,0.3-38.4,0.3c-5.6,0-13.3,0.1-23,0.3c-13,0-19.6,0.1-19.8,0.3
	c-5.1,1.2-3.7,5.4,4.2,12.4c7.6,6.7,18.6,14,33,21.9c14.2,7.9,29,14.5,44.4,19.8c5.8,1.9,9.1,3.3,9.8,4c0.7,0.7-0.3,1.7-3.2,2.9
	c-2.2,1-4.1,2.4-5.7,4.2c-1.8,1.8-3.3,4-4.4,6.3c-0.9,1.8-1.8,2.5-2.9,2.4s-4.1-1.5-9.2-4c-30.1-14.6-54.4-34.1-72.9-58.4
	c-3.7-4.9-6.3-7-7.9-6.1c-1.6,1.1-2.5,6.1-2.9,15.1c-0.2,8.1,0.2,22.6,1.1,43.3v1.9c0.3,10.2,0.4,15.6,0.3,16.1
	c-0.3,1.9-2.8,3.7-7.4,5.2C799.6,449.8,796.4,450,794.5,448.9z M697.5,337.2c-0.7-0.7-2.5-4-5.5-9.8c-3-5.8-4.4-8.8-4-9
	c0-0.4,2.7-0.9,8.2-1.6c1-0.2,1.9-0.4,2.9-0.5c4.2-0.5,6.9-1.2,7.9-2.1c1.6-1.1,2.5-3.4,2.9-7.1c0.2-2.7,0.3-8.8,0.3-18.5V282
	c0-18.5-0.3-31-1-37.5c-0.5-6-0.8-9.5-0.8-10.4c0-1,0.3-1.4,0.8-1.4c1.4,0,6.1,1.4,14,4.2c3.5,1.6,5.7,2.9,6.6,4
	c0.9,1.1,0.6,2.2-0.8,3.4c-1.8,1.6-2.9,3.9-3,6.3c-0.3,2.8-0.5,11.9-0.7,27.2v4.5c0,11.1,0.1,18.1,0.3,20.9c0.4,4,1.2,6.5,2.6,7.4
	c0.9,0.5,3.2,0.4,6.9-0.3c0.4-0.2,0.9-0.2,1.3-0.3c0.8-0.2,1.6-0.3,2.4-0.3c4-0.7,6.7-1.6,7.9-2.6c1.4-1.4,2.3-4.4,2.7-9
	c0.2-3.3,0.2-11.2,0-23.5V268c-0.2-25.5-0.9-43.3-2.1-53.4c0-0.6-0.1-1.2-0.3-1.9c-0.4-2.8-0.2-4.4,0.5-4.6s3.3,0.3,7.7,1.7l2.4,0.8
	c6.7,2.3,10.9,4.1,12.7,5.6s1.5,2.8-0.8,4.2c-3,2.1-4.6,8.1-4.8,17.8c-0.2,9.8,1.2,15.3,4.3,16.7c6.3,2.8,12.4-0.1,18.2-8.7
	c2.7-3.9,4.8-5.6,6.5-5.3c1.6,0.4,5,3.1,10.2,8.2c4,4.1,6.4,6.9,7.1,8.5c0.7,1.6,0.1,3-1.8,4.2c-0.9,0.7-7.2,1.1-19,1.3h-6.3
	c-7,0-11.5,0.3-13.2,0.8c-2.6,0.5-4.3,1.9-5,4c-0.4,1.6-0.5,5.4-0.5,11.4v7.1c0,6.9,0.3,11.2,0.8,13c0.7,2.5,2.4,3.7,5.3,3.7
	c2.1,0,7-0.7,14.5-2.1l4-0.8c10.2-1.9,16.1-2.9,17.7-2.9c1.9,0,2.5,0.9,1.6,2.6c-0.4,0.7-9.4,3.9-27.2,9.5
	c-18.1,5.8-37.2,11.5-57.1,17.2c-8.3,2.5-13.9,4.2-16.9,5.3c-2.2,0.9-4.1,2.1-5.8,3.7C699.9,337.7,698.4,338.2,697.5,337.2
	L697.5,337.2z M831.5,320.3c-5.5-0.5-9.1-1.4-10.8-2.6c-2.1-1.6-3.5-4.6-4.2-9c-0.5-3.5-0.8-10.7-0.8-21.4c0-13-0.3-21.2-0.8-24.6
	c-0.3-2.4-0.4-4.8-0.3-7.1c0.5-2.8,0.6-9.4,0.3-19.8c-0.1-8-0.8-16-1.9-24c-0.2-2.3,0-3.5,0.7-3.6s3,0.6,7.3,2
	c7,2.3,11.6,4.1,13.6,5.6c2,1.4,2.2,2.9,0.4,4.5c-2.7,2.5-4,9.4-4,20.9c0,11.4,1.4,17.5,4.2,18.2c2.3,0.7,8.4-2.2,18.5-8.6
	c8.8-5.5,17.2-11.8,24.8-18.9c3.5-3.3,5.6-4.8,6.3-4.5c15.9,12.4,20.1,18.7,12.7,18.7c-2.5,0.1-5,0.7-7.4,1.6
	c-1.1,0.5-4.1,1.9-9.3,4c-1.2,0.5-2.1,0.9-2.6,1.1c-11.6,4.6-23.4,8.6-35.4,11.9c-0.3,0-0.5,0.1-0.8,0.3c-5.5,1.4-8.6,3-9.5,4.9
	c-0.9,1.9-1.2,7.5-1.1,17v3.4c0,5.8,0.4,9.5,1.1,11.1c0.7,2.1,2.5,3.4,5.5,4c2.3,0.5,7.5,0.8,15.6,0.8h7.9c13.4,0.2,21.9,0,25.6-0.5
	c5.1-0.7,8.5-2.4,10.3-5c1.4-1.9,2.9-6.5,4.5-13.7c0.2-0.4,0.2-0.9,0.3-1.3c0.6-3.2,1.4-6.4,2.4-9.5c0.3-1,0.8-1.6,1.3-1.6
	c0.7,0,1.2,0.5,1.3,1.6s0.4,4.8,0.8,11.1c0.2,6.7,0.5,11.1,1.1,13.2c0.5,2,1.7,3.8,3.4,5c3.3,2.1,4.2,4.6,2.6,7.4s-4.9,4.8-10,5.8
	c-4.4,0.9-16.2,1.6-35.5,2.1S837.7,321,831.5,320.3L831.5,320.3z"/>
<path class="st0" d="M793.6,817.4c-1.4-0.5-2.4-1.7-2.5-3.2c-0.3-3.2-0.2-6.4,0.1-9.5c1.9-32.6,2.1-50.8,0.5-54.7
	c-0.9-1.8-2-2.3-3.4-1.6s-4.5,3.3-9.3,7.9c-21.8,20.8-47.5,37.4-76.9,49.7c-9.5,4-14.8,5.7-15.9,5c-0.8-0.5-1.1-1.5-0.6-2.3
	c0.1-0.2,0.2-0.3,0.4-0.4c0.9-1,3.5-2.6,7.9-4.9c26.2-14.1,48-30.5,65.3-49.1l0.5-0.5c7.4-8.1,11.7-13.2,12.9-15.3
	c1.8-3.2,0.7-5.1-3.2-5.8c-2.7-0.5-9.9-0.8-21.7-0.8h-1.1c-18.5,0-32.8,0.6-42.8,1.8c-0.9,0-1.8,0.1-2.6,0.3
	c-4.6,0.7-7.4,0.9-8.3,0.5s-2.2-1.8-3.6-4.5v-0.5c-1.9-3.7-2.8-5.8-2.5-6.3c0.3-0.5,1.9-0.6,4.9-0.3c7.2,0.7,24.2,1.2,51,1.6
	c26.8,0.4,41.6,0.2,44.4-0.5c2.5-0.5,4-2.6,4.6-6.2s0.5-10.4-0.4-20.5v-1c-0.4-3-0.2-4.6,0.5-4.9c0.7-0.3,3.1,0.3,7.1,1.7
	c0.5,0.1,1.1,0.3,1.6,0.5c7.6,2.5,12.2,4.4,14,5.7c1.8,1.3,1.6,2.8-0.5,4.3c-2.8,2.1-4.3,5.5-4.5,10.2s1,7.8,3.4,9.4
	c0.9,0.7,11.5,1.2,31.8,1.3c20.3,0.2,31.6,0,33.7-0.5c2.5-0.9,5.4-3.6,8.7-8.2c3.2-4.4,5.4-6.8,6.6-7.3c1.2-0.4,3.3,0.3,6.1,2.3
	c4.6,3,8.8,6.5,12.6,10.4c3.6,3.8,5.1,6.3,4.3,7.5c-0.7,1.6-3.1,2.5-7.1,2.6s-17.6,0.4-40.7,0.5h-1.3c-21.1,0.2-33.5,0.3-37.3,0.3
	c-4.2,0.2-6.6,0.5-7.1,1.1c-3.2,2.8,0.3,8.4,10.6,16.6c9.5,7.8,22.1,15.7,37.8,23.8c16.6,8.6,31.6,14.9,45.2,18.8
	c2.3,0.7,3.5,1.4,3.6,2.3c0.1,0.8-0.9,1.5-3,2.2c-1.6,0.5-3.6,2-6,4.4c-2,1.9-3.6,4-4.9,6.5c-1,2.3-2.2,3.3-3.4,3s-5.2-2-11.9-5.2
	c-0.4-0.1-0.7-0.3-1.1-0.5c-28.9-14.2-53.8-35.5-72.4-61.8c-3-4.1-5.1-5.5-6.2-4.2c-1.1,1.2-1.8,6.3-2,15.1c0,7.8,0.3,21.7,1,41.7
	c0.4,7.8,0.5,12.3,0.5,13.7c0.1,1.2-0.4,2.4-1.3,3.2c-2.3,2.1-5.1,3.6-8.1,4.4C798.3,818.2,795.5,818.3,793.6,817.4z M716.2,638.6
	c-1.3-0.4-2.3-1.2-2.9-2.4c-5.1-8.6-11.3-15.2-18.5-19.8c-3-1.9-3.3-3.2-1-3.8s5.7-0.5,10.3,0.4c4.5,0.8,8.9,2.4,12.9,4.5
	c4,2.1,7.1,5.5,8.7,9.8c1.4,3.9,1.2,7-0.5,9.5C723.4,639.5,720.4,640.2,716.2,638.6z M715.9,713.3c-2-0.6-3.6-2.3-4.1-4.4
	c-0.6-2.2-0.8-5.7-0.4-10.4c0.7-8.3,0.2-14.2-1.6-17.7c-1.8-3.5-5.3-5.7-10.6-6.6c-1.2-0.1-2.5-0.5-3.6-1.1
	c-0.5-0.6-0.8-1.3-0.7-2.1c0-1.4,0.4-2.3,1.3-2.6c1.8-0.5,3.7-0.6,5.5-0.5h1.8c2.5,0.1,5.1-0.3,7.4-1.3c2.3-1.4,5.8-5,10.6-10.8
	c3.3-4.2,11-14,23-29.3c3.3-4.2,5.9-7.5,7.7-9.8c0.9-1,2.1-2.6,3.7-4.8c8.5-10.7,13.4-17,14.9-18.8c1.5-1.8,2.6-2.4,3.3-1.8
	c0.8,0.1,1.4,0.9,1.3,1.7c0,0.1,0,0.2-0.1,0.3c-0.3,1-1.5,3.2-3.8,6.7c-3.9,6.2-4.5,10-1.7,11.5c2.7,1.5,11.1,2.2,25.2,2
	c5.1-0.2,8.5-0.5,10-1.1c1.9-0.9,3.1-2.8,3.4-5.8c0.3-2.1,0.3-7.1,0-14.8c0-1.8-0.1-4.2-0.3-7.4c-0.2-2.8-0.3-4.3-0.3-4.5
	c0-1,4.6-1.5,13.7-1.3s13.9,0.7,14.3,1.6c0,1.4-1.4,3.1-4.2,5c-1.8,1.2-3.2,4.7-4.4,10.3c-1.2,5.6-1.3,10.2-0.4,13.7
	c1.1,3.9,5.7,5.5,13.9,4.9c8.2-0.6,14-3,17.6-7c2.5-3,4.4-4.4,5.8-4.2s4.1,2.2,8.1,6.2s6.3,6.8,6.9,8.5s-0.1,3.2-2.3,4.6l-0.5,0.3
	c-1.9,1.1-3.2,2.9-3.7,5c-0.3,1.9-0.5,8.3-0.5,19v7.9c0,8.8,0.2,14.5,0.5,16.9c0.4,3.2,1.3,5.2,2.9,6.1c1.2,0.5,4.1,0.8,8.5,0.8h2.4
	c7,0,11.4-0.9,13.1-2.6s3.5-7.5,5.4-17.2c1.4-7.6,2.4-11.5,3-11.8c1.1-0.3,1.7,0.2,2,1.6c0.4,3.9,0.7,7.9,0.7,11.9
	c0,4.6,0.3,9.2,0.8,13.7c0.5,1.9,1.6,3.7,3.2,5c1.2,0.9,1.9,2.3,1.8,3.8c0.2,1.7-0.2,3.4-1.1,4.9c-1.8,2.5-4.6,4.1-8.6,4.9
	c-4,0.8-11.8,1.2-23.4,1.2h-4.8c-8.6,0-14.1-0.3-16.4-1c-3.2-1.2-5.1-4.1-5.8-8.7c-0.5-3.3-0.8-11.2-0.8-23.5v-14
	c0-9.3-0.1-15.2-0.3-17.7c-0.5-3.3-1.6-5.5-3.2-6.3c-1.2-0.5-4-0.8-8.5-0.8h-3.7c-7.4,0-11.8,0.5-13.3,1.5c-1.5,1-3,4.3-4.6,10.2
	l-0.3,0.3c-9.3,34-32.1,58.1-68.2,72.4c-3.9,1.4-6.4,2.1-7.7,2.1s-1.8-0.7-1.8-2.1c2.3-1.2,4.5-2.5,6.6-3.7
	c14.6-8.1,26.3-17.5,35-28.3c8.7-10.7,15-23.6,18.9-38.6c1.9-7,0.8-11.4-3.3-13.2c-4.1-1.8-12.3-1.3-24.4,1.3
	c-2,0.5-4.1,0.8-6.2,0.9c-0.6-0.1-1.3-0.8-2-2.3c-2.1-3.5-3.8-5.3-5-5.3c-1.4,0-3,1.1-4.8,3.3s-6,8.4-12.7,18.6
	c-10.2,15.3-16.3,25.5-18.1,30.4c-1.8,4.9-1.8,10.7,0.1,17.2c2.8,9.7,3,17.3,0.5,22.7C726.4,714.4,722.1,715.8,715.9,713.3z
	 M734.4,608.2c-1.2-0.5-2.5-1.9-3.7-4.1s-3.9-5.4-7.9-9.5c-3.2-3.4-6.8-6.6-10.6-9.4c-3.3-2.3-4.2-3.9-2.6-4.8
	c1.6-0.9,4.7-0.9,9.3,0c4.9,0.9,9.6,2.5,14,4.8c4.4,2.2,8,5.8,10,10.3c1.9,4.2,2.2,7.7,0.8,10.3C742.1,608.8,739,609.6,734.4,608.2z
	"/>
</svg>
