<?xml version="1.0" encoding="utf-8"?>
<!-- Generator: Adobe Illustrator 23.0.5, SVG Export Plug-In . SVG Version: 6.00 Build 0)  -->
<svg version="1.1" id="圖層_1" xmlns="http://www.w3.org/2000/svg" xmlns:xlink="http://www.w3.org/1999/xlink" x="0px" y="0px"
	 viewBox="0 0 1000 500" style="enable-background:new 0 0 1000 500;" xml:space="preserve">
<path d="M70.1,162.9c-3.1,0-5.7,2.5-5.7,5.6c0,0,0,0,0,0.1s0,0,0,0.1c0,3.1,2.6,5.6,5.7,5.6h225.9c16.4,0,29.7,13.3,29.7,29.7v59.6
	v26.6v198.4H11.4V254.9c0-5.7,7.4-7.8,10.5-3.1l4.7,7.3c4.5,7.1,9.6,13.9,15.1,20.2c30.9,35.4,76.3,57.8,126.8,57.8
	c49.8,0,94.5-21.7,125.4-56.1c0.9-1,1.4-2.4,1.4-3.8v0c0-5.2-6.4-7.6-9.9-3.8c-28.8,32.1-70.5,52.3-116.9,52.3
	c-52,0-98.2-25.4-126.8-64.5c-5.8-7.9-10.9-16.4-15.1-25.4c-8.9-18.8-14.2-39.6-15-61.5c-0.1-1.9-0.1-3.8-0.1-5.7
	c0-1.9,0.1-3.8,0.1-5.7c0.2-5.1,0.6-10.2,1.3-15.1c0.7-5.1,1.6-10.2,2.8-15.1C31.9,63.3,94.2,11.5,168.5,11.5
	c72.7,0,134,49.7,151.8,116.9c0.7,2.5,2.9,4.3,5.5,4.3h0c3.8,0,6.5-3.6,5.5-7.2C312.2,53.4,246.4,0.1,168.5,0.1
	C87.9,0.1,20.4,57,3.9,132.6c-1.1,5-1.9,10-2.6,15.1c-0.6,5-1,10-1.2,15.1H0v5.7v72.9v32.3v226h336.9v-226v-32.3v-78.6H70.1z"/>
<g>
	<path d="M556.2,378.8c-1.4-0.7-2.2-1.8-2.4-3.3c-0.2-1.5-0.1-4.7,0.3-9.6c1.4-22.7,2-37.8,1.8-45.2c-0.2-9-1.3-13.8-3.4-14.5
		c-1.9-0.5-5.6,1.8-11.1,7.1c-22.5,22-50.3,39.5-83.2,52.3c-4.1,1.6-6.6,2.5-7.7,2.6c-1.1,0.2-1.8-0.1-2.2-0.9
		c-0.4-0.8-0.3-1.5,0.4-2.2c0.7-0.7,3-2,6.9-4c14.1-7.4,27.8-16.3,41.1-26.8c13.3-10.5,24-20.8,32.1-31c3.5-4.2,5.4-7,5.6-8.5
		c0.2-1.8-1.6-2.9-5.3-3.4c-3-0.4-9.6-0.5-19.8-0.5c-17.4,0-30.9,0.6-40.4,1.9c-0.7,0-1.6,0.1-2.6,0.3c-4.6,0.7-7.3,1-8.3,0.8
		c-1-0.2-1.9-1.3-2.8-3.4c-0.4-0.7-0.6-1.2-0.8-1.6c-1.8-3.9-2.6-6.1-2.5-6.7c0.1-0.6,1.4-0.7,3.8-0.4c10.2,0.9,29.2,1.3,57.1,1.3
		c2.3,0,5.5,0,9.5,0c13,0,21.2-0.3,24.6-0.8c4.9-0.7,7.8-2.6,8.7-5.8c0.5-2.1,0.4-7.4-0.5-15.9c-0.2-2.6-0.4-4.7-0.5-6.1
		c-0.4-2.3-0.2-3.5,0.5-3.6c0.7-0.1,3.3,0.6,7.7,2l0.3,0.3c7.2,2.3,11.8,4.2,13.6,5.8c1.8,1.6,1.5,3.1-0.9,4.5
		c-1.4,0.9-2.4,3.3-3,7.3c-0.6,4-0.4,6.9,0.7,8.9c0.9,1.8,2.8,2.8,5.8,3c3,0.3,13,0.4,30.1,0.4c2.3,0,5.4,0,9.2,0
		c12.5,0,20-0.3,22.6-0.9c2.6-0.6,5.2-2.7,7.8-6.2c0.7-1.1,1.3-1.9,1.8-2.6c2.6-3.3,4.7-5.1,6.1-5.3c1.2,0,4,1.6,8.3,4.9
		c4.3,3.3,7.7,6.3,10,9.1c2.4,2.8,3.3,4.8,2.8,5.8c-0.7,1.6-3,2.5-6.7,2.6c-3.8,0.2-16.6,0.3-38.4,0.3c-5.6,0-13.3,0.1-23,0.3
		c-13,0-19.6,0.1-19.8,0.3c-5.1,1.2-3.7,5.4,4.2,12.4c7.6,6.7,18.6,14,33,21.9c15.5,8.5,30.3,15.1,44.4,19.8c5.8,1.9,9.1,3.3,9.8,4
		c0.7,0.7-0.4,1.7-3.2,2.9c-1.8,0.7-3.7,2.1-5.7,4.2c-2,2.1-3.5,4.2-4.4,6.3c-0.9,1.8-1.8,2.6-2.9,2.4c-1.1-0.2-4.1-1.5-9.2-4
		c-30.1-14.6-54.4-34.1-72.9-58.4c-3.7-4.9-6.3-7-7.9-6.1c-1.6,1.1-2.6,6.1-2.9,15.1c-0.2,8.1,0.2,22.5,1.1,43.3c0,0.4,0,1,0,1.8
		c0.4,10.2,0.4,15.6,0.3,16.1c-0.4,1.9-2.8,3.7-7.4,5.2C561.4,379.6,558.1,379.9,556.2,378.8z M459.2,267.1c-0.7-0.7-2.6-4-5.5-9.8
		c-3-5.8-4.3-8.8-4-9c0-0.4,2.7-0.9,8.2-1.6c0.7-0.2,1.7-0.4,2.9-0.5c4.2-0.5,6.9-1.2,7.9-2.1c1.6-1.1,2.6-3.4,2.9-7.1
		c0.2-2.6,0.3-8.8,0.3-18.5c0-2.8,0-5,0-6.6c0-18.5-0.4-31-1-37.5c-0.5-6-0.8-9.5-0.8-10.4c0-1,0.3-1.5,0.8-1.5
		c1.4,0,6.1,1.4,14,4.2c3.5,1.6,5.7,2.9,6.6,4c0.9,1.1,0.6,2.2-0.8,3.4c-1.8,1.4-2.8,3.5-3,6.3c-0.3,2.8-0.5,11.9-0.7,27.2
		c0,1.1,0,2.6,0,4.5c0,11.1,0.1,18.1,0.3,20.9c0.3,4.1,1.2,6.5,2.6,7.4c0.9,0.5,3.2,0.4,6.9-0.3c0.5-0.2,1-0.3,1.3-0.3
		c0.5-0.2,1.3-0.3,2.4-0.3c4.1-0.7,6.7-1.6,7.9-2.6c1.4-1.4,2.3-4.4,2.6-9c0.2-3.3,0.2-11.2,0-23.5c0-2.8,0-5,0-6.6
		c-0.2-25.5-0.9-43.3-2.1-53.4c0-0.5-0.1-1.1-0.3-1.8c-0.4-2.8-0.2-4.4,0.5-4.6c0.7-0.3,3.3,0.3,7.7,1.7c1.1,0.4,1.8,0.6,2.4,0.8
		c6.7,2.3,10.9,4.1,12.7,5.5c1.8,1.4,1.5,2.8-0.8,4.2c-3,2.1-4.6,8.1-4.8,17.8c-0.2,9.8,1.2,15.4,4.2,16.8
		c6.3,2.8,12.4-0.1,18.2-8.7c2.6-3.9,4.8-5.6,6.5-5.3c1.7,0.4,5.1,3.1,10.2,8.2c4.1,4.1,6.4,6.9,7.1,8.5c0.7,1.6,0.1,3-1.8,4.2
		c-0.9,0.7-7.2,1.1-19,1.3c-0.7,0-1.2,0-1.6,0c-1.2,0-2.8,0-4.8,0c-7,0-11.4,0.3-13.2,0.8c-2.6,0.5-4.3,1.8-5,4
		c-0.4,1.6-0.5,5.4-0.5,11.4c0,1.6,0,2.9,0,4c0,0.7,0,1.8,0,3.2c0,6.9,0.3,11.2,0.8,12.9c0.7,2.5,2.5,3.7,5.3,3.7
		c2.1,0,7-0.7,14.5-2.1c1.8-0.4,3.1-0.6,4-0.8c10.2-1.9,16.1-2.9,17.7-2.9c1.9,0,2.5,0.9,1.6,2.6c-0.4,0.7-9.4,3.9-27.2,9.5
		c-18.1,5.8-37.2,11.5-57.1,17.2c-8.3,2.5-13.9,4.2-16.9,5.3c-2.5,1.1-4.4,2.3-5.8,3.7C461.5,267.6,460.1,268.1,459.2,267.1z
		 M593.2,250.2c-5.5-0.5-9.1-1.4-10.8-2.6c-2.1-1.6-3.5-4.6-4.2-9c-0.5-3.5-0.8-10.7-0.8-21.4c0-13-0.3-21.2-0.8-24.6
		c-0.4-2.8-0.4-5.2-0.3-7.1c0.5-2.8,0.6-9.4,0.3-19.8c-0.4-10.7-1-18.8-1.9-24c-0.2-2.3,0-3.5,0.7-3.6c0.6-0.1,3,0.6,7.3,2
		c7,2.3,11.6,4.1,13.6,5.5c2,1.4,2.2,2.9,0.4,4.5c-2.6,2.5-4,9.4-4,20.9c0,11.5,1.4,17.5,4.2,18.2c2.3,0.7,8.5-2.2,18.5-8.6
		c10-6.4,18.3-12.7,24.8-18.9c3.5-3.3,5.6-4.8,6.3-4.5c15.9,12.5,20.1,18.8,12.7,18.8c-1.9,0-4.4,0.5-7.4,1.6
		c-1.1,0.5-4.1,1.8-9.2,4c-1.2,0.5-2.1,0.9-2.6,1.1c-11.5,4.6-23.2,8.5-35.4,11.9c-0.2,0-0.4,0.1-0.8,0.3c-5.5,1.4-8.6,3-9.5,4.9
		c-0.9,1.8-1.2,7.5-1.1,17c0,0.9,0,2,0,3.4c0,5.8,0.3,9.5,1.1,11.1c0.7,2.1,2.6,3.4,5.5,4c2.3,0.5,7.5,0.8,15.6,0.8c2.1,0,3.8,0,5,0
		c0.7,0,1.7,0,2.9,0c13.4,0.2,21.9,0,25.6-0.5c5.1-0.7,8.5-2.4,10.3-5c1.4-1.9,2.9-6.5,4.5-13.7c0.2-0.5,0.3-1,0.3-1.3
		c1.1-5.1,1.8-8.3,2.4-9.5c0.3-1.1,0.8-1.6,1.3-1.6c0.7,0,1.1,0.5,1.3,1.6s0.4,4.8,0.8,11.1c0.2,6.7,0.5,11.1,1.1,13.2
		c0.5,2.1,1.7,3.8,3.4,5c3.3,2.1,4.2,4.6,2.6,7.4c-1.6,2.8-4.9,4.8-10,5.8c-4.4,0.9-16.2,1.6-35.5,2.1
		C612,250.9,599.3,250.9,593.2,250.2z"/>
	<path d="M873.1,379.1c-1.4-0.5-2.2-1.6-2.5-3.2c-0.3-1.6-0.2-4.8,0.1-9.5c1.9-32.6,2.1-50.8,0.5-54.7c-0.9-1.8-2-2.3-3.4-1.6
		c-1.4,0.7-4.5,3.3-9.2,7.9c-21.8,20.8-47.5,37.3-76.9,49.7c-9.5,4.1-14.8,5.7-15.9,5c-1.1-0.9-1.1-1.8-0.3-2.8
		c0.9-1,3.5-2.6,7.9-4.9c26.2-14.1,48-30.5,65.3-49.1l0.5-0.5c7.4-8.1,11.7-13.2,12.9-15.3c1.8-3.2,0.7-5.1-3.2-5.8
		c-2.6-0.5-9.9-0.8-21.7-0.8c-0.5,0-0.9,0-1.1,0c-18.5,0-32.8,0.6-42.8,1.8c-0.7,0-1.6,0.1-2.6,0.3c-4.6,0.7-7.4,0.9-8.3,0.5
		c-1-0.4-2.2-1.9-3.6-4.5v-0.5c-1.9-3.7-2.8-5.8-2.5-6.3c0.3-0.5,1.9-0.6,4.9-0.3c7.2,0.7,24.2,1.2,51,1.6
		c26.8,0.4,41.6,0.2,44.4-0.5c2.5-0.5,4-2.6,4.6-6.2c0.6-3.6,0.5-10.4-0.4-20.5c0-0.2,0-0.5,0-1.1c-0.4-3-0.2-4.6,0.5-4.9
		c0.7-0.3,3.1,0.3,7.1,1.7c0.7,0.2,1.2,0.4,1.6,0.5c7.6,2.5,12.2,4.4,14,5.7c1.8,1.3,1.6,2.8-0.5,4.4c-2.8,2.1-4.3,5.5-4.5,10.2
		c-0.2,4.7,1,7.8,3.4,9.4c0.9,0.7,11.5,1.1,31.8,1.3c20.3,0.2,31.6,0,33.7-0.5c2.5-0.9,5.4-3.6,8.7-8.2c3.2-4.4,5.4-6.8,6.6-7.3
		c1.2-0.4,3.3,0.3,6.1,2.2c4.8,3.2,8.9,6.7,12.6,10.4c3.6,3.8,5.1,6.3,4.4,7.5c-0.7,1.6-3.1,2.5-7.1,2.6c-4.1,0.2-17.6,0.4-40.7,0.5
		c-0.4,0-0.8,0-1.3,0c-21.1,0.2-33.5,0.3-37.3,0.3c-4.2,0.2-6.6,0.5-7.1,1.1c-3.2,2.8,0.3,8.4,10.6,16.6
		c9.5,7.8,22.1,15.7,37.8,23.8c16.6,8.6,31.6,14.9,45.2,18.8c2.3,0.7,3.5,1.5,3.6,2.2c0.1,0.8-0.9,1.5-3,2.2c-1.6,0.5-3.6,2-5.9,4.4
		c-2.4,2.4-4,4.5-4.9,6.5c-1.1,2.3-2.2,3.3-3.4,3c-1.2-0.3-5.2-2-11.9-5.2c-0.5-0.2-0.9-0.4-1.1-0.5c-29.2-14.4-53.4-35-72.4-61.8
		c-3-4.1-5.1-5.5-6.2-4.2c-1.2,1.2-1.8,6.3-2,15.1c0,7.8,0.3,21.7,1.1,41.7c0.3,7.7,0.5,12.3,0.5,13.7c0,1.4-0.4,2.5-1.3,3.2
		c-1.8,1.8-4.4,3.2-8.1,4.4C877.8,379.8,875,380,873.1,379.1z M795.6,200.2c-1.2-0.4-2.2-1.1-2.9-2.4c-5.1-8.6-11.3-15.2-18.5-19.8
		c-3-1.9-3.3-3.2-1.1-3.8c2.3-0.6,5.7-0.5,10.3,0.4c5.1,1.1,9.4,2.6,12.9,4.5c4.2,2.3,7.1,5.5,8.7,9.8c1.4,3.9,1.2,7-0.5,9.5
		C802.9,201.2,799.9,201.8,795.6,200.2z M795.4,275c-2.1-0.7-3.5-2.2-4.1-4.4c-0.6-2.2-0.8-5.7-0.4-10.4c0.7-8.3,0.2-14.2-1.6-17.7
		c-1.8-3.5-5.3-5.7-10.6-6.6c-1.9-0.4-3.1-0.7-3.6-1.1c-0.4-0.4-0.7-1.1-0.7-2.1c0-1.4,0.4-2.3,1.3-2.6c0.9-0.4,2.7-0.5,5.6-0.5
		c0.5,0,1.1,0,1.8,0c3.2,0,5.6-0.4,7.4-1.3c2.3-1.4,5.8-5,10.6-10.8c3.3-4.2,11-14,23-29.3c3.3-4.2,5.9-7.5,7.7-9.8
		c0.9-1.1,2.1-2.6,3.7-4.8c8.5-10.7,13.4-17,14.9-18.8c1.5-1.8,2.6-2.4,3.3-1.8c1.1,0.4,1.4,1,1.2,2c-0.3,1-1.5,3.2-3.8,6.7
		c-3.9,6.2-4.5,10-1.7,11.5c2.7,1.5,11.1,2.2,25.2,2c5.1-0.2,8.5-0.5,10-1.1c1.9-0.9,3.1-2.8,3.4-5.8c0.3-2.1,0.3-7,0-14.8
		c0-1.8-0.1-4.2-0.3-7.4c-0.2-2.8-0.3-4.3-0.3-4.5c0-1.1,4.6-1.5,13.7-1.3c9.2,0.2,13.9,0.7,14.3,1.6c0,1.4-1.4,3.1-4.2,5
		c-1.8,1.2-3.2,4.7-4.4,10.3c-1.1,5.6-1.3,10.2-0.4,13.7c1.1,3.9,5.7,5.5,13.9,4.9c8.2-0.6,14-2.9,17.6-7c2.5-3,4.4-4.4,5.8-4.2
		c1.4,0.2,4.1,2.2,8.1,6.2c4,4,6.2,6.8,6.9,8.5c0.6,1.7-0.1,3.2-2.2,4.6l-0.5,0.3c-2.1,1.4-3.3,3.1-3.7,5c-0.4,1.9-0.5,8.3-0.5,19
		c0,1.6,0,2.9,0,3.8c0,1,0,2.3,0,4.1c0,8.8,0.2,14.4,0.5,16.9c0.4,3.2,1.3,5.2,2.9,6.1c1.2,0.5,4.1,0.8,8.5,0.8c1,0,1.8,0,2.4,0
		c7,0,11.4-0.9,13.1-2.6c1.7-1.8,3.5-7.5,5.4-17.2c1.4-7.6,2.4-11.5,2.9-11.9c1.1-0.4,1.7,0.2,2,1.6c0.3,1.4,0.5,5.4,0.7,11.9
		c0.2,7,0.4,11.6,0.8,13.7c0.5,1.9,1.6,3.6,3.2,5c1,0.7,1.7,2,1.8,3.8c0.2,1.8-0.2,3.5-1.1,4.9c-1.8,2.5-4.6,4.1-8.6,4.9
		c-4,0.8-11.8,1.2-23.4,1.2c-1.1,0-2.6,0-4.8,0c-8.6,0-14.1-0.4-16.4-1.1c-3.2-1.2-5.1-4.1-5.8-8.7c-0.5-3.3-0.8-11.2-0.8-23.5
		c0-3,0-5.4,0-7.1c0-1.8,0-4,0-6.9c0-9.3-0.1-15.2-0.3-17.7c-0.5-3.3-1.6-5.5-3.2-6.3c-1.2-0.5-4.1-0.8-8.5-0.8c-1.6,0-2.8,0-3.7,0
		c-7.4,0-11.9,0.5-13.3,1.5s-3,4.4-4.6,10.2l-0.3,0.3c-9.3,34-32.1,58.1-68.2,72.4c-3.9,1.4-6.4,2.1-7.7,2.1c-1.2,0-1.8-0.7-1.8-2.1
		c2.3-1.2,4.5-2.5,6.6-3.7c14.6-8.1,26.3-17.5,35-28.3c8.7-10.7,15-23.6,18.9-38.6c1.9-7,0.8-11.4-3.3-13.2
		c-4.1-1.8-12.3-1.3-24.4,1.3c-3.5,0.7-5.6,1-6.2,0.9c-0.6-0.1-1.3-0.8-2-2.2c-2.1-3.5-3.8-5.3-5-5.3c-1.4,0-3,1.1-4.8,3.3
		c-1.8,2.2-6,8.4-12.7,18.6c-10.2,15.3-16.2,25.4-18.1,30.4c-1.8,4.9-1.8,10.7,0.1,17.2c2.8,9.7,3,17.3,0.5,22.7
		C805.9,276,801.5,277.4,795.4,275z M813.9,169.8c-1.2-0.5-2.5-1.9-3.7-4.1c-1.2-2.2-3.9-5.4-7.9-9.5c-4.1-4.1-7.6-7.3-10.6-9.4
		c-3.3-2.3-4.2-3.9-2.6-4.8c1.6-0.9,4.7-0.9,9.2,0c4.8,0.9,9.4,2.5,14,4.8c4.6,2.3,7.9,5.7,10,10.3c1.9,4.2,2.2,7.7,0.8,10.3
		C821.5,170.5,818.5,171.3,813.9,169.8z"/>
</g>
</svg>
