<?xml version="1.0" encoding="utf-8"?>
<!-- Generator: Adobe Illustrator 23.0.5, SVG Export Plug-In . SVG Version: 6.00 Build 0)  -->
<svg version="1.1" id="圖層_1" xmlns="http://www.w3.org/2000/svg" xmlns:xlink="http://www.w3.org/1999/xlink" x="0px" y="0px"
	 viewBox="0 0 1000 500" style="enable-background:new 0 0 1000 500;" xml:space="preserve">
<title>柴染LOGO</title>
<path d="M401.6,162.9c-3.1,0-5.7,2.5-5.7,5.6v0.1c0,3.1,2.6,5.6,5.7,5.6h225.9c16.4,0,29.7,13.3,29.7,29.6c0,0,0,0,0,0v284.6H342.9
	V254.9c0-3.1,2.5-5.7,5.7-5.7c1.9,0,3.8,1,4.8,2.6l4.7,7.3c49.8,78.4,153.8,101.6,232.1,51.7c13-8.3,24.9-18.3,35.2-29.9
	c0.9-1.1,1.5-2.4,1.5-3.8l0,0c0-3.1-2.5-5.7-5.6-5.7c-1.6,0-3.2,0.7-4.2,1.9c-57.8,64.6-157,70.2-221.7,12.4
	c-31.9-28.5-50.8-68.8-52.3-111.5c-0.1-1.9-0.1-3.8-0.1-5.7s0.1-3.8,0.1-5.7c0.2-5.1,0.6-10.2,1.3-15.1c0.7-5.1,1.6-10.2,2.8-15.1
	C363.4,63.3,425.8,11.5,500,11.5c72.7,0,134,49.7,151.8,116.9c0.6,2.5,2.9,4.3,5.5,4.3l0,0c3.2,0,5.7-2.6,5.7-5.7
	c0-0.5-0.1-1-0.2-1.5C643.7,53.4,578,0.1,500,0.1c-80.5,0-148,56.9-164.6,132.5c-1.1,5-1.9,10-2.6,15.1s-1,10-1.2,15.1h-0.1v336.9
	h336.9V162.9H401.6z"/>
<path d="M108.2,433.9c-1.3-0.6-2.2-1.9-2.4-3.3c-0.1-3.2-0.1-6.4,0.3-9.6c1.4-22.7,2-37.8,1.8-45.2c-0.2-9-1.3-13.8-3.4-14.5
	c-1.9-0.5-5.6,1.9-11.1,7.1c-22.5,22-50.3,39.4-83.2,52.3c-2.5,1.1-5,1.9-7.7,2.6c-0.9,0.3-1.8-0.1-2.2-0.9
	c-0.5-0.7-0.3-1.7,0.4-2.2c0.7-0.7,3-2,6.9-4c14.5-7.6,28.2-16.6,41.1-26.8c13.3-10.5,24-20.8,32.1-31c3.5-4.2,5.4-7,5.6-8.5
	c0.2-1.8-1.6-2.9-5.3-3.4c-3-0.3-9.6-0.5-19.8-0.5c-17.4,0-30.9,0.6-40.4,1.8c-0.9,0-1.8,0.1-2.6,0.3c-4.6,0.7-7.4,1-8.3,0.8
	s-1.9-1.3-2.8-3.4l-0.8-1.6c-1.8-3.9-2.6-6.1-2.5-6.7s1.4-0.8,3.8-0.4c10.2,0.9,29.2,1.3,57.1,1.3h9.5c13,0,21.2-0.3,24.6-0.8
	c4.9-0.7,7.8-2.6,8.7-5.8c0.5-2.1,0.4-7.4-0.5-15.9c-0.2-2.7-0.3-4.7-0.5-6.1c-0.3-2.3-0.2-3.5,0.5-3.6s3.3,0.6,7.7,2l0.3,0.3
	c7.2,2.3,11.8,4.2,13.6,5.8c1.9,1.6,1.5,3.1-0.9,4.5c-1.4,0.9-2.4,3.3-3,7.3c-0.6,4-0.4,6.9,0.7,8.9c0.9,1.8,2.8,2.8,5.8,3
	s13,0.4,30.1,0.4h9.3c12.5,0,20-0.3,22.6-0.9s5.2-2.7,7.8-6.2c0.7-1,1.3-1.9,1.9-2.6c2.6-3.3,4.7-5.1,6.1-5.3c1.2,0,4,1.6,8.3,4.9
	c3.7,2.7,7,5.7,10,9.1c2.4,2.8,3.3,4.8,2.8,5.8c-0.7,1.6-2.9,2.5-6.7,2.6s-16.6,0.3-38.4,0.3c-5.6,0-13.3,0.1-23,0.3
	c-13,0-19.6,0.1-19.8,0.3c-5.1,1.2-3.7,5.4,4.2,12.4c7.6,6.7,18.6,14,33,21.9c14.2,7.9,29,14.5,44.4,19.8c5.8,1.9,9.1,3.3,9.8,4
	c0.7,0.7-0.3,1.7-3.2,2.9c-2.2,1-4.1,2.4-5.7,4.2c-1.8,1.8-3.3,4-4.4,6.3c-0.9,1.8-1.9,2.5-2.9,2.4s-4.1-1.5-9.3-4
	c-30.1-14.6-54.4-34.1-72.9-58.4c-3.7-4.9-6.3-7-7.9-6.1c-1.6,1.1-2.6,6.1-2.9,15.1c-0.2,8.1,0.2,22.6,1.1,43.3v1.9
	c0.4,10.2,0.4,15.6,0.3,16.1c-0.4,1.9-2.8,3.7-7.4,5.2S110.1,435,108.2,433.9z M11.2,322.2c-0.7-0.7-2.5-4-5.5-9.8
	c-3-5.8-4.3-8.8-4-9c0-0.4,2.7-0.9,8.2-1.6c1-0.2,1.9-0.4,2.9-0.5c4.2-0.5,6.9-1.2,7.9-2.1c1.6-1.1,2.5-3.4,2.9-7.1
	c0.2-2.7,0.3-8.8,0.3-18.5V267c0-18.5-0.4-31-1-37.5c-0.5-6-0.8-9.5-0.8-10.4c0-1,0.3-1.4,0.8-1.4c1.4,0,6.1,1.4,14,4.2
	c3.5,1.6,5.7,2.9,6.6,4c0.9,1.1,0.6,2.2-0.8,3.4c-1.8,1.6-2.9,3.9-3,6.3c-0.2,2.8-0.5,11.9-0.7,27.2v4.5c0,11.1,0.1,18.1,0.3,20.9
	c0.4,4,1.2,6.5,2.6,7.4c0.9,0.5,3.2,0.4,6.9-0.3c0.4-0.2,0.9-0.2,1.3-0.3c0.8-0.2,1.6-0.3,2.4-0.3c4-0.7,6.7-1.6,7.9-2.6
	c1.4-1.4,2.3-4.4,2.7-9c0.2-3.3,0.2-11.2,0-23.5V253c-0.2-25.5-0.9-43.3-2.1-53.4c0-0.6-0.1-1.2-0.3-1.9c-0.3-2.8-0.2-4.4,0.5-4.6
	s3.3,0.3,7.7,1.7l2.4,0.8c6.7,2.3,10.9,4.1,12.7,5.6c1.8,1.4,1.5,2.8-0.8,4.2c-3,2.1-4.6,8.1-4.8,17.8c-0.2,9.8,1.3,15.3,4.3,16.7
	c6.3,2.8,12.4-0.1,18.2-8.7c2.7-3.9,4.8-5.6,6.5-5.3s5,3.1,10.2,8.2c4.1,4.1,6.4,6.9,7.1,8.4c0.7,1.6,0.1,3-1.8,4.2
	c-0.9,0.7-7.2,1.1-19,1.3h-6.4c-7,0-11.5,0.3-13.2,0.8c-2.6,0.5-4.3,1.9-5,4c-0.3,1.6-0.5,5.4-0.5,11.4v7.1c0,6.9,0.3,11.2,0.8,13
	c0.7,2.5,2.5,3.7,5.3,3.7c2.1,0,7-0.7,14.5-2.1l4-0.8c10.2-1.9,16.1-2.9,17.7-2.9c1.9,0,2.5,0.9,1.6,2.6c-0.3,0.7-9.4,3.9-27.2,9.5
	c-18.2,5.8-37.2,11.5-57.1,17.1c-8.3,2.5-13.9,4.2-16.9,5.3c-2.2,0.9-4.1,2.1-5.8,3.7C13.5,322.7,12.1,323.2,11.2,322.2L11.2,322.2z
	 M145.2,305.3c-5.5-0.5-9.1-1.4-10.8-2.6c-2.1-1.6-3.5-4.6-4.2-9c-0.5-3.5-0.8-10.7-0.8-21.4c0-13-0.3-21.2-0.8-24.6
	c-0.3-2.4-0.4-4.8-0.3-7.1c0.5-2.8,0.6-9.4,0.3-19.8c-0.1-8-0.8-16-1.9-24c-0.2-2.3,0-3.5,0.7-3.6s3,0.6,7.3,2
	c7,2.3,11.6,4.1,13.6,5.6c2,1.4,2.2,2.9,0.4,4.5c-2.7,2.5-4,9.4-4,20.9s1.4,17.5,4.2,18.2c2.3,0.7,8.4-2.2,18.5-8.6
	c8.8-5.5,17.2-11.8,24.8-18.9c3.5-3.3,5.6-4.8,6.3-4.5c15.9,12.4,20.1,18.7,12.7,18.7c-2.5,0.1-5,0.7-7.4,1.6
	c-1.1,0.5-4.1,1.9-9.3,4c-1.2,0.5-2.1,0.9-2.6,1.1c-11.6,4.6-23.4,8.6-35.4,11.9c-0.3,0-0.5,0.1-0.8,0.3c-5.5,1.4-8.6,3-9.5,4.9
	s-1.2,7.5-1.1,17v3.4c0,5.8,0.4,9.5,1.1,11.1c0.7,2.1,2.6,3.4,5.6,4c2.3,0.5,7.5,0.8,15.6,0.8h7.9c13.4,0.2,21.9,0,25.6-0.5
	c5.1-0.7,8.5-2.4,10.3-5c1.4-1.9,2.9-6.5,4.5-13.7c0.2-0.4,0.2-0.9,0.3-1.3c0.6-3.2,1.4-6.4,2.4-9.5c0.4-1,0.8-1.6,1.3-1.6
	c0.7,0,1.1,0.5,1.3,1.6s0.4,4.8,0.8,11.1c0.2,6.7,0.5,11.1,1.1,13.2c0.5,2,1.7,3.8,3.4,5c3.3,2.1,4.2,4.6,2.6,7.4s-4.9,4.8-10,5.8
	c-4.4,0.9-16.2,1.6-35.5,2.1S151.4,306,145.2,305.3L145.2,305.3z"/>
<path d="M873.1,434.2c-1.4-0.5-2.4-1.7-2.5-3.2c-0.3-3.2-0.2-6.4,0.1-9.5c1.9-32.6,2.1-50.8,0.5-54.7c-0.9-1.8-2-2.3-3.4-1.6
	s-4.5,3.3-9.3,7.9c-21.8,20.8-47.5,37.3-76.9,49.7c-9.5,4-14.8,5.7-15.8,5c-0.8-0.5-1.1-1.5-0.7-2.3c0.1-0.2,0.2-0.3,0.4-0.5
	c0.9-1,3.5-2.6,7.9-4.9c26.2-14.1,48-30.5,65.3-49.1l0.5-0.5c7.4-8.1,11.7-13.2,12.9-15.3c1.8-3.2,0.7-5.1-3.2-5.8
	c-2.7-0.5-9.9-0.8-21.7-0.8h-1.1c-18.5,0-32.8,0.6-42.8,1.9c-0.9,0-1.8,0.1-2.7,0.3c-4.6,0.7-7.3,0.9-8.3,0.5s-2.2-1.9-3.6-4.5v-0.5
	c-1.9-3.7-2.8-5.8-2.5-6.3s1.9-0.6,4.9-0.3c7.2,0.7,24.2,1.2,51,1.6c26.8,0.4,41.6,0.2,44.4-0.5c2.5-0.5,4-2.6,4.6-6.2
	s0.5-10.4-0.4-20.5v-1.1c-0.3-3-0.2-4.6,0.5-4.9s3.1,0.3,7.1,1.7c0.5,0.1,1.1,0.3,1.6,0.5c7.6,2.5,12.2,4.4,14,5.7s1.6,2.8-0.5,4.4
	c-2.8,2.1-4.3,5.5-4.5,10.2s1,7.8,3.4,9.4c0.9,0.7,11.5,1.1,31.8,1.3c20.3,0.2,31.6,0,33.7-0.5c2.5-0.9,5.4-3.6,8.7-8.2
	c3.2-4.4,5.4-6.8,6.6-7.3s3.3,0.3,6.1,2.3c4.6,3,8.8,6.5,12.6,10.4c3.6,3.8,5.1,6.3,4.3,7.5c-0.7,1.6-3,2.5-7.1,2.6
	s-17.7,0.4-40.7,0.5h-1.3c-21.1,0.2-33.5,0.3-37.3,0.3c-4.2,0.2-6.6,0.5-7.1,1c-3.2,2.8,0.4,8.4,10.6,16.6
	c9.5,7.8,22.1,15.7,37.8,23.8c16.6,8.6,31.6,14.9,45.2,18.8c2.3,0.7,3.5,1.5,3.6,2.3s-0.9,1.5-3,2.2c-1.6,0.5-3.6,2-5.9,4.4
	c-2,1.9-3.6,4-4.9,6.5c-1.1,2.3-2.2,3.3-3.4,3s-5.2-2-11.9-5.1c-0.4-0.1-0.7-0.3-1-0.5c-29-14.1-53.9-35.4-72.5-61.7
	c-3-4-5.1-5.5-6.2-4.2s-1.8,6.3-2,15.1c0,7.8,0.4,21.7,1.1,41.7c0.4,7.7,0.5,12.3,0.5,13.7c0.1,1.2-0.4,2.4-1.3,3.2
	c-2.3,2.1-5,3.5-8,4.4C877.8,434.9,875,435.1,873.1,434.2z M795.7,255.3c-1.3-0.4-2.3-1.2-2.9-2.4c-5.1-8.6-11.3-15.2-18.5-19.8
	c-3-1.9-3.3-3.2-1.1-3.8s5.7-0.5,10.3,0.4c4.5,0.9,8.9,2.4,12.9,4.5c4,2.1,7.1,5.5,8.7,9.8c1.4,3.9,1.2,7-0.5,9.5
	C802.9,256.3,799.9,256.9,795.7,255.3z M795.4,330.1c-2-0.6-3.6-2.3-4.1-4.4c-0.6-2.2-0.8-5.7-0.4-10.4c0.7-8.3,0.2-14.2-1.6-17.7
	c-1.8-3.5-5.3-5.7-10.6-6.6c-1.2-0.1-2.5-0.5-3.6-1c-0.5-0.6-0.8-1.4-0.7-2.1c0-1.4,0.4-2.3,1.3-2.6c1.8-0.5,3.7-0.6,5.6-0.5h1.8
	c2.5,0.1,5.1-0.3,7.4-1.3c2.3-1.4,5.8-5,10.6-10.8c3.3-4.2,11-14,23-29.3c3.3-4.2,5.9-7.5,7.7-9.8c0.9-1.1,2.1-2.6,3.7-4.8
	c8.5-10.7,13.4-17,14.9-18.8c1.5-1.8,2.6-2.4,3.3-1.9c0.8,0.1,1.4,0.9,1.3,1.7c0,0.1,0,0.2-0.1,0.3c-0.3,1-1.5,3.2-3.8,6.7
	c-3.9,6.2-4.5,10-1.7,11.5s11.1,2.2,25.2,2c5.1-0.2,8.5-0.5,10-1.1c1.9-0.9,3.1-2.8,3.4-5.8c0.3-2.1,0.3-7,0-14.8
	c0-1.8-0.1-4.2-0.3-7.4c-0.2-2.8-0.3-4.3-0.3-4.5c0-1.1,4.6-1.5,13.7-1.3c9.2,0.2,13.9,0.7,14.3,1.6c0,1.4-1.4,3.1-4.2,5
	c-1.8,1.2-3.2,4.7-4.4,10.3c-1.1,5.6-1.3,10.2-0.4,13.7c1.1,3.9,5.7,5.5,13.9,4.9s14-3,17.6-7c2.5-3,4.4-4.4,5.8-4.2
	s4.1,2.3,8.1,6.2s6.3,6.8,6.9,8.4s-0.1,3.2-2.3,4.6l-0.5,0.3c-1.9,1.1-3.2,2.9-3.7,5c-0.3,1.9-0.5,8.3-0.5,19v7.9
	c0,8.8,0.2,14.4,0.5,16.9c0.4,3.2,1.3,5.2,2.9,6.1c1.2,0.5,4.1,0.8,8.5,0.8h2.4c7,0,11.4-0.9,13.1-2.6s3.5-7.5,5.4-17.2
	c1.4-7.6,2.4-11.5,2.9-11.9c1-0.4,1.7,0.2,2,1.6c0.4,3.9,0.6,7.9,0.7,11.9c0,4.6,0.3,9.2,0.8,13.7c0.5,1.9,1.6,3.7,3.2,5
	c1.2,0.9,1.8,2.3,1.8,3.8c0.2,1.7-0.2,3.4-1.1,4.9c-1.8,2.5-4.6,4.1-8.6,4.9s-11.8,1.2-23.4,1.2h-4.8c-8.6,0-14.1-0.4-16.4-1.1
	c-3.2-1.2-5.1-4.1-5.8-8.7c-0.5-3.3-0.8-11.2-0.8-23.5v-14c0-9.3-0.1-15.2-0.3-17.7c-0.5-3.3-1.6-5.5-3.2-6.3
	c-1.2-0.5-4-0.8-8.5-0.8h-3.7c-7.4,0-11.9,0.5-13.3,1.4c-1.5,1-3,4.4-4.6,10.2l-0.3,0.3c-9.3,34-32,58.1-68.2,72.4
	c-3.9,1.4-6.4,2.1-7.7,2.1s-1.8-0.7-1.8-2.1c2.3-1.2,4.5-2.5,6.6-3.7c14.6-8.1,26.3-17.5,35-28.3c8.7-10.7,15-23.6,18.9-38.6
	c1.9-7,0.8-11.4-3.3-13.2c-4.1-1.8-12.3-1.3-24.5,1.3c-2,0.5-4.1,0.8-6.2,0.9c-0.6-0.1-1.3-0.8-2-2.3c-2.1-3.5-3.8-5.3-5-5.3
	c-1.4,0-3,1.1-4.8,3.3c-1.8,2.2-6,8.4-12.7,18.6c-10.2,15.3-16.2,25.5-18.1,30.4s-1.8,10.6,0.1,17.2c2.8,9.7,3,17.3,0.5,22.7
	C805.9,331.1,801.5,332.6,795.4,330.1z M813.9,225c-1.2-0.5-2.5-1.9-3.7-4.1s-3.9-5.4-7.9-9.5c-3.2-3.4-6.8-6.6-10.6-9.4
	c-3.3-2.3-4.2-3.9-2.6-4.8c1.6-0.9,4.7-0.9,9.3,0c4.9,0.9,9.6,2.5,14,4.8c4.4,2.2,8,5.8,10,10.3c1.9,4.2,2.2,7.7,0.8,10.3
	C821.5,225.6,818.5,226.4,813.9,225z"/>
</svg>
