<?xml version="1.0" encoding="utf-8"?>
<!-- Generator: Adobe Illustrator 23.0.5, SVG Export Plug-In . SVG Version: 6.00 Build 0)  -->
<svg version="1.1" id="圖層_2" xmlns="http://www.w3.org/2000/svg" xmlns:xlink="http://www.w3.org/1999/xlink" x="0px" y="0px"
	 viewBox="0 0 100 100" style="enable-background:new 0 0 100 100;" xml:space="preserve">
<style type="text/css">
	.st0{fill:#7F4E25;}
</style>
<path class="st0" d="M75,10.3c-3.7-3.7-8-6.4-12.6-8.1c-7.9-3-16.7-3-24.7,0c-4.6,1.7-8.9,4.4-12.6,8.1
	c-7.4,7.4-10.9,17.4-10.3,27.1c0,0.1,0,0.2,0,0.3c0.3,5.1,1.8,10.1,4.3,14.7v0l2.6,4l0,0L50,100l28.2-43.5l0,0l2.6-4v0
	c2.6-4.6,4-9.6,4.3-14.7c0-0.1,0-0.2,0-0.3C85.8,27.7,82.4,17.8,75,10.3z M64.1,36.2c0,0,0,0.1,0,0.1c-0.1,2-0.7,4-1.7,5.9
	c-0.3,0.6-0.6,1.1-1,1.6l0,0c-0.4,0.5-0.8,1-1.3,1.5c-5.5,5.5-14.5,5.5-20,0c-0.5-0.5-0.9-1-1.3-1.5l0,0c-0.4-0.5-0.7-1.1-1-1.6
	c-1-1.8-1.6-3.9-1.7-5.9c0,0,0-0.1,0-0.1c-0.2-3.9,1.1-7.9,4.1-10.9c1.5-1.5,3.2-2.6,5.1-3.2c3.2-1.2,6.7-1.2,9.9,0
	c1.9,0.7,3.6,1.8,5.1,3.2C63,28.3,64.4,32.3,64.1,36.2z"/>
</svg>
