<?xml version="1.0" encoding="utf-8"?>
<!-- Generator: Adobe Illustrator 23.0.5, SVG Export Plug-In . SVG Version: 6.00 Build 0)  -->
<svg version="1.1" id="圖層_1" xmlns="http://www.w3.org/2000/svg" xmlns:xlink="http://www.w3.org/1999/xlink" x="0px" y="0px"
	 viewBox="0 0 400 140" style="enable-background:new 0 0 400 140;" xml:space="preserve">
<g>
	<path d="M0.9,70.4C11.5,64.1,21.7,56.9,32,50.1c10.1-6.7,19.9-13.3,32.5-13.3c17.3,0.1,22.4,15.3,22.8,30
		c0.4,15.2-1.8,32.9-10.9,45.5c-1.9,2.7-4.2,5.1-6.9,7c-2.6,1.8-12.3,6.3-10.8-0.3c1.2-4.9,6.9-9.6,10.5-12.8
		c4.3-3.9,9-7.4,13.9-10.7C88.3,92,94,89,99.2,85.4c3.3-2.3,6.4-4.8,10.4-6c6.6-1.9,29.4-0.9,26,10.8c-0.2,0.6-0.3,6.9,0.5,6.5
		c12.2-5.8,24.4-11.6,36.6-17.3c5.9-2.8,11.7-5.8,17.6-8.3c2.8-1.2,5.8-2.4,8.8-2.3c1.2,0.1,7.2,2.1,6.7,3.2
		c-0.3,0.7-0.2,6.9,0.5,6.5c15.5-7.7,30.9-15.7,46.7-23c12.9-5.9,29.6-10.1,41,1.3c0.1,0.2,0.3,0.2,0.4,0
		c30.8-22.1,66.9-35.7,104.6-39.7c1.3-0.1,0.8-7.1-0.2-7c-34.5,3.6-67.8,15.3-96.8,34.3c-1.7,1.1-3.4,2.6-5.2,3.5
		c-3,1.5-3.3,0.9-5.9-0.9c-2.5-1.8-5.4-3-8.4-3.7c-8-1.9-16.1-0.3-23.6,2.6c-18,6.9-35.3,16.9-52.6,25.5c0.2,2.2,0.4,4.3,0.5,6.5
		c1.6-3.6,1.5-8.8-0.6-12.2c-4.3-6.9-12.9-3.2-18.6-0.5c-17.2,8.1-34.4,16.3-51.6,24.5c0.2,2.2,0.4,4.3,0.5,6.5
		c2.1-7.3,2.1-16.9-5.2-21.3c-9.4-5.7-21.6-4.2-30.2,1.9C89.6,85,76.9,91.3,66.6,101.3c-4.3,4.2-8.5,8.6-9.7,14.7
		c-0.7,3.3-1,8.2,0.9,11.2c5.3,8.9,18.4-6.4,21.1-11.1c4.9-8.3,7.3-18,8.6-27.5c2.2-15.3,3.8-35.8-5.1-49.5
		C75,27.5,59.3,28.2,48,33.3c-7.5,3.4-14.5,8.6-21.3,13.2c-8.6,5.8-17.1,11.6-26,16.9C-0.9,64.3,0.8,70.4,0.9,70.4L0.9,70.4z"/>
</g>
</svg>
