<svg xmlns="http://www.w3.org/2000/svg" viewBox="0 0 1920 220"><defs><style>.cls-1{fill:#fff;}</style></defs><title>V-H1</title><g id="圖層_6" data-name="圖層 6"><path class="cls-1" d="M2.37,192.51v-1c0-1.67.33-2.66,1-3s3.07-.75,7.23-1.25a16.5,16.5,0,0,1,2.5-.25,6.7,6.7,0,0,0,1.5-.25q9.48-1,11.23-3.12t2.24-14.09v-1.5q.49-22.45.13-79.23T27.07,30.31a6.38,6.38,0,0,0-4-3.62q-2.74-.87-12.72-1.87c-4-.33-6.33-.75-7-1.24s-1-1.83-1-4v-.25q.24-3.24,40.43-4.49t53.9,1.25q23.7,4.25,35.68,20.21,11.24,15.23,6.74,32.19-4.74,18-25.46,27.7-7.48,3.5-7.23,5.49c.16,1.34,3.07,2.91,8.73,4.74q33.43,11.73,33.44,40.93.24,19.71-13.85,32.44T94.2,196.26q-5.74,1-48,1.24t-43-.49Q2.37,196.26,2.37,192.51ZM85,185.78q37.92-5,37.93-38.18,0-20.22-13.1-29.57t-41.3-9.61H65q-6.73,0-8.48.75c-1.66.67-2.74,2.41-3.24,5.24q-.51,3-.5,14.47v5.49q-.26,32.44.5,41.3T57,185.78q1.74.75,12,.75A130.74,130.74,0,0,0,85,185.78ZM79.48,96.69q19.22-2.25,28.45-13T115.16,55q-2-16.22-12.85-23.08T68,25.32H64.51c-4.17,0-6.83.34-8,1q-2.49,1.5-3,7.24-.51,4-.5,19.21V62q0,24.71.37,29t2.87,5.49q1.74.75,10,.75Q74,97.19,79.48,96.69Z"/><path class="cls-1" d="M180.79,197a12.48,12.48,0,0,1-.5-4.5v-1c0-1.67.33-2.66,1-3s3.08-.75,7.24-1.25A16.27,16.27,0,0,1,191,187a6.7,6.7,0,0,0,1.5-.25q9.48-1,11.23-3.12T206,169.56v-1.5q.51-22.45.13-79.23T205,30.31a6,6,0,0,0-3.5-3.49A71,71,0,0,0,191,25.07a4,4,0,0,1-1.25-.25c-4.82-.5-7.61-.95-8.36-1.37s-1.12-1.7-1.12-3.87v-.25a3.12,3.12,0,0,1,2.75-3q3.48-1,17.21-1.25,10,0,47.17-.25,66.63,0,67.62.5.49,1,1.13,23.58t0,23.21c-.42.42-2.37.62-5.87.62-3.33,0-5.28-.2-5.86-.62s-1.87-5.53-3.87-15.35c-.34-1.49-.67-3.41-1-5.74-1-5.49-1.91-8.89-2.74-10.23q-2-3-7-3.74-3.49-.5-16.72-.5H253.41q-12.74-.24-16,.5-4.75,1.24-5.74,6.49-1,3.73-.75,17.47V74q-.25,14.22.25,18c.5,3.49,1.74,5.66,3.74,6.49,1.5.5,5,.66,10.48.5h9.23q13.23,0,15.6-1.5T274.12,87a16,16,0,0,0,.25-2.25c.16-.83.33-1.91.5-3.24q1-7,1.74-8.11c.5-.75,1.83-1.12,4-1.12h1.24q3.75,0,5.24,16.71a154.91,154.91,0,0,1,0,30.45q-1.48,16.72-5.49,16.72c-3.16,0-4.9-.17-5.24-.5a21.16,21.16,0,0,1-.74-4.49c-.34-2.16-.59-3.83-.75-5a16,16,0,0,0-.25-2.25q-1.26-8-2.25-10.23c-1-2-2.91-3.24-5.74-3.74q-3-.51-14-.25h-8.49q-7.48,0-9.48.75c-1.83,1-3,3.33-3.49,7q-.51,3.75-.25,18.47v24.45q-.25,14.24.75,18a7.61,7.61,0,0,0,6,6.49c2.32.67,7.89.91,16.71.75h22.46q14,.24,18-.25,5.24-.75,7.24-4c.83-1.32,1.74-4.74,2.74-10.23q.49-3.74,1-6,2.74-14.72,3.49-15.22.49-.75,6.24-.75c4,0,6.07.3,6.24.88s0,8.44-.5,23.58-.92,22.92-1.25,23.33-23.54.71-69.62.87Q181.55,197.75,180.79,197Z"/><path class="cls-1" d="M396.89,201a132.62,132.62,0,0,1-27.95-6q-16-5-17.22-8.24-.5-1.49.5-19.33t1.75-18.1q1.74-1.74,7.61-.87c3.91.59,5.86,1.54,5.86,2.87,0,1.17,1,6.11,3,14.85s3.16,13.52,3.49,14.35Q377.17,187,393.4,189t29.69-2.49q13-4.25,19.09-14.73t3.37-23.46a26.49,26.49,0,0,0-9.73-16.09q-7.74-6.1-29.45-15.35-27-11.22-38.3-22.58T355,65.5q-2.5-24,14.59-39.43T415.35,10.6a92.92,92.92,0,0,1,26.71,4.87q14.22,4.62,17.46,9.35.5.75-.25,17.35T458,59.76q-.25.5-6.74.5-6.24,0-6.74-.5l-2-8.24c-.49-2-.83-3.57-1-4.74q-3.26-15.21-5.49-18.46t-11-5q-20.47-4.24-34.69,5.49T377.17,56q.51,13,8.61,20.71T415.6,93.2q29.44,11.73,41,24.08t11.61,32.06q0,22.22-14.85,35.81T411.61,201A109.49,109.49,0,0,1,396.89,201Z"/><path class="cls-1" d="M529.27,196.88c-.59-.58-.88-1.91-.88-4s.25-3.45.75-4.12q.5-.75,10.48-1.75,10.49-1.25,12.85-2a6,6,0,0,0,3.62-3.5q1.24-2.73,1.25-75.61t-1.25-75.36A5.88,5.88,0,0,0,552,27.07q-2.61-.5-17.09-.5-14.73,0-17.47.5a5.26,5.26,0,0,0-4,3.24q-.49,1-3.74,15.35t-3.25,15.6q0,2-6.73,2h-1c-2.83,0-4.49-.16-5-.5S493,61.17,493,59v-.25q0-4.74,1-24.2,1-18.72,1.37-19.22t74.24-.5q74.11,0,74.61.63t1.25,23.58q.75,23,.25,23.58c-.34.42-2.25.62-5.74.62q-5,0-6-.75-1-.49-4-15.47a39.45,39.45,0,0,0-1-4.49q-2.51-12.22-4.87-14.1t-14.6-1.87h-5.24q-14.47,0-17.09.5a5.53,5.53,0,0,0-4,3.24q-1.38,2.76-1.38,75.61T583,181.53a6,6,0,0,0,3.62,3.5q2.37.75,12.85,2,10,1,10.61,1.88c.41.58.62,1.91.62,4s-.29,3.41-.87,4-14,.87-40.3.87S529.85,197.47,529.27,196.88Z"/><path class="cls-1" d="M1126.41,196.88c-.59-.58-.87-1.91-.87-4s.24-3.45.74-4.12q.51-.75,10.49-1.75,10.47-1.25,12.85-2a5.94,5.94,0,0,0,3.61-3.5q1.24-2.73,1.25-75.61t-1.25-75.36a5.86,5.86,0,0,0-4.11-3.49q-2.62-.5-17.1-.5c-9.81,0-15.64.17-17.46.5a5.26,5.26,0,0,0-4,3.24q-.49,1-3.74,15.35t-3.24,15.6q0,2-6.74,2h-1c-2.83,0-4.49-.16-5-.5s-.75-1.58-.75-3.74v-.25q0-4.74,1-24.2,1-18.72,1.37-19.22t74.24-.5q74.11,0,74.61.63t1.25,23.58q.75,23,.25,23.58c-.34.42-2.25.62-5.74.62q-5,0-6-.75-1-.49-4-15.47a39.45,39.45,0,0,0-1-4.49q-2.5-12.22-4.87-14.1t-14.59-1.87h-5.24q-14.48,0-17.1.5a5.55,5.55,0,0,0-4,3.24q-1.38,2.76-1.37,75.61t1.24,75.61a6,6,0,0,0,3.62,3.5q2.37.75,12.85,2,10,1,10.61,1.88c.41.58.62,1.91.62,4s-.29,3.41-.87,4-14,.87-40.3.87S1127,197.47,1126.41,196.88Z"/><path class="cls-1" d="M1258.91,196.88q-.87-.87-.87-4c0-2.08.25-3.45.75-4.12q.24-.5,8.48-2,8.73-1.49,11.11-2.87t4.36-6.11q1.24-3,28.45-83.59,27.19-79.86,27.7-80.36.75-.5,7.49-.5t7.48.5q1,1,29,83.1,27.95,82.35,29.2,84.34a7.73,7.73,0,0,0,4,4q2.49,1,10.48,2,6.24.75,7.24,1.38c.66.41,1,1.79,1,4.11V194c.17,1.33-.08,2.17-.74,2.5-1,.5-3.42.83-7.24,1h-58.39q-5.74-.24-7.24-1c-.67-.33-.92-1.17-.75-2.5v-1.25c0-2.32.41-3.7,1.25-4.11s3.74-1,8.73-1.63a14.6,14.6,0,0,0,2.25-.25q8.24-1,10.23-2c1.83-1,2.49-3,2-6q-.51-3.24-4.25-15c-.5-1.5-.91-2.66-1.24-3.5q-1-2.74-2.25-7.23-3-9.24-4.49-11.48c-1.5-2.33-3.91-3.75-7.24-4.24q-3.49-.75-16-.5h-19.21q-12.48-.26-16.22.5c-3.33.49-5.66,1.83-7,4q-1.76,2.49-4.49,11.48c-.84,2.83-1.59,5.15-2.25,7-.33.84-.75,2-1.25,3.5q-3.74,12-4.24,15.22-.75,4.49,1.75,6c1.16.67,4.4,1.33,9.73,2a11.15,11.15,0,0,0,2,.24q9.48,1.26,10.23,2a11,11,0,0,1,.5,4.12c0,2.08-.3,3.41-.88,4s-10.44.87-29.57.87S1259.49,197.47,1258.91,196.88Zm104.44-71.49c1.49-.83,2.24-1.75,2.24-2.75q0-2.23-2.24-9.48-1.5-5.23-8-25c-.34-.83-.58-1.5-.75-2q-1.5-4.24-3.74-11.48-6.49-19-8.49-23-3-5.24-6,0-2,4-8.24,23-2.25,7.24-3.74,11.48-6.74,20.21-8.49,26-2.49,7.74-2.49,10.23a4,4,0,0,0,2,2.62q1.75,1.13,24,1.13Q1361.59,126.38,1363.35,125.39Z"/><path class="cls-1" d="M1501.59,201q-12-1-27.95-6t-17.22-8.24q-.5-1.49.5-19.33t1.75-18.1q1.74-1.74,7.61-.87c3.91.59,5.86,1.54,5.86,2.87,0,1.17,1,6.11,3,14.85s3.16,13.52,3.49,14.35q3.24,6.48,19.47,8.48t29.69-2.49q13-4.25,19.09-14.73t3.37-23.46a26.49,26.49,0,0,0-9.73-16.09q-7.74-6.1-29.45-15.35-26.94-11.22-38.3-22.58t-13.1-28.82q-2.51-24,14.6-39.43t45.79-15.47a92.92,92.92,0,0,1,26.7,4.87q14.22,4.62,17.46,9.35.51.75-.25,17.35t-1.24,17.59q-.26.5-6.74.5-6.24,0-6.74-.5l-2-8.24a47,47,0,0,1-1-4.74q-3.26-15.21-5.49-18.46t-11-5q-20.47-4.24-34.69,5.49T1481.88,56q.49,13,8.61,20.71t29.82,16.47q29.43,11.73,41,24.08T1573,149.34q0,22.22-14.85,35.81T1516.31,201A109.49,109.49,0,0,1,1501.59,201Z"/><path class="cls-1" d="M1634,196.88c-.59-.58-.88-1.91-.88-4s.25-3.45.75-4.12q.5-.75,10.48-1.75,10.48-1.25,12.85-2a6,6,0,0,0,3.62-3.5q1.24-2.73,1.25-75.61t-1.25-75.36a5.86,5.86,0,0,0-4.11-3.49q-2.62-.5-17.1-.5-14.73,0-17.47.5a5.26,5.26,0,0,0-4,3.24q-.49,1-3.74,15.35t-3.25,15.6q0,2-6.73,2h-1c-2.83,0-4.49-.16-5-.5s-.75-1.58-.75-3.74v-.25q0-4.74,1-24.2,1-18.72,1.37-19.22t74.24-.5q74.12,0,74.61.63t1.25,23.58q.75,23,.25,23.58c-.34.42-2.25.62-5.74.62q-5,0-6-.75-1-.49-4-15.47a39.45,39.45,0,0,0-1-4.49q-2.51-12.22-4.87-14.1t-14.6-1.87H1709q-14.48,0-17.09.5a5.53,5.53,0,0,0-4,3.24q-1.38,2.76-1.37,75.61t1.24,75.61a6,6,0,0,0,3.62,3.5q2.37.75,12.85,2,10,1,10.61,1.88c.41.58.62,1.91.62,4s-.29,3.41-.87,4-14,.87-40.3.87S1634.55,197.47,1634,196.88Z"/><path class="cls-1" d="M1776.58,197a12.25,12.25,0,0,1-.5-4.5v-1c0-1.67.33-2.66,1-3s3.07-.75,7.23-1.25a16.5,16.5,0,0,1,2.5-.25,6.7,6.7,0,0,0,1.5-.25q9.48-1,11.23-3.12t2.24-14.09v-1.5q.49-22.45.13-79.23t-1.13-58.52a6,6,0,0,0-3.49-3.49,71,71,0,0,0-10.48-1.75,4,4,0,0,1-1.25-.25c-4.82-.5-7.61-.95-8.36-1.37s-1.12-1.7-1.12-3.87v-.25a3.11,3.11,0,0,1,2.74-3q3.5-1,17.22-1.25,10,0,47.17-.25,66.61,0,67.62.5.5,1,1.12,23.58t0,23.21c-.41.42-2.37.62-5.86.62-3.33,0-5.28-.2-5.86-.62s-1.88-5.53-3.87-15.35c-.34-1.49-.67-3.41-1-5.74-1-5.49-1.92-8.89-2.75-10.23q-2-3-7-3.74-3.5-.5-16.72-.5h-19.72q-12.72-.24-16,.5-4.74,1.24-5.74,6.49-1,3.73-.74,17.47V74q-.26,14.22.25,18c.49,3.49,1.74,5.66,3.74,6.49,1.5.5,5,.66,10.48.5h9.23q13.23,0,15.6-1.5T1869.91,87a16,16,0,0,0,.25-2.25c.16-.83.33-1.91.5-3.24q1-7,1.74-8.11c.5-.75,1.83-1.12,4-1.12h1.25q3.75,0,5.24,16.71a154.91,154.91,0,0,1,0,30.45q-1.5,16.72-5.49,16.72c-3.16,0-4.91-.17-5.24-.5a20.73,20.73,0,0,1-.75-4.49c-.33-2.16-.58-3.83-.74-5a16,16,0,0,0-.25-2.25q-1.26-8-2.25-10.23c-1-2-2.91-3.24-5.74-3.74q-3-.51-14-.25H1840q-7.49,0-9.48.75c-1.83,1-3,3.33-3.49,7q-.51,3.75-.25,18.47v24.45q-.26,14.24.74,18a7.62,7.62,0,0,0,6,6.49c2.33.67,7.9.91,16.72.75h22.46q14,.24,18-.25,5.24-.75,7.24-4c.83-1.32,1.74-4.74,2.74-10.23q.5-3.74,1-6,2.75-14.72,3.49-15.22.5-.75,6.24-.75c4,0,6.07.3,6.24.88s0,8.44-.5,23.58-.92,22.92-1.25,23.33-23.54.71-69.62.87Q1777.32,197.75,1776.58,197Z"/><path class="cls-1" d="M884.69,188.27l-62-40.72-.34-2c-2.08-11.75-8.43-50.86-3.09-60.77,4.33-8,8.85-12.59,13.82-13.91a11.38,11.38,0,0,1,9.12,1.48c4.75,3,8.81,8.34,12.11,16,10-23.8,22.34-40.4,39-52.89,7.05-5.28,17.51-6.68,30.26-4,18,3.73,36.86,14.89,42.87,25.42,9.38,16.42,14.47,49.17-.39,67.93-13.83,17.48-76.12,59.91-78.77,61.71ZM831.09,142l53.5,35.13c12-8.26,62.71-43.58,74.17-58,12.16-15.37,7.49-43.81-.39-57.6-4.18-7.31-19.92-17.47-36.7-20.94-9.94-2.06-18-1.21-22.83,2.38-17.79,13.34-30.28,32-40.5,60.62l-5,14.07-3.81-14.45C845.31,87.25,840,82,837.26,80.23a2.14,2.14,0,0,0-1.84-.38c-.82.22-3.83,1.54-8,9.35C824.85,93.91,827.3,119.85,831.09,142Z"/><path class="cls-1" d="M876,200.84l-67.34-43,17.43-19.11,65.33,42.9ZM823,156,874,188.56l3.84-4.78-50.21-33Z"/><rect class="cls-1" x="884.58" y="92.86" width="5.29" height="46.53" transform="translate(-4.25 39.14) rotate(-2.52)"/><rect class="cls-1" x="912.71" y="71.22" width="5.29" height="53.84" transform="translate(-3.4 39.85) rotate(-2.49)"/></g></svg>